<?xml version="1.0" encoding="UTF-8" standalone="no"?>
<!DOCTYPE svg PUBLIC "-//W3C//DTD SVG 1.1//EN" "http://www.w3.org/Graphics/SVG/1.1/DTD/svg11.dtd">
<svg width="100%" height="100%" viewBox="0 0 198 118" version="1.1" xmlns="http://www.w3.org/2000/svg" xmlns:xlink="http://www.w3.org/1999/xlink" xml:space="preserve" xmlns:serif="http://www.serif.com/" style="fill-rule:evenodd;clip-rule:evenodd;stroke-linejoin:round;stroke-miterlimit:1.41421;">
    <g transform="matrix(1,0,0,1,-860.817,-497)">
        <g id="cloudy" transform="matrix(0.248709,0,0,0.248709,959.522,555.669)">
            <g transform="matrix(1,0,0,1,-256,-256)">
                <path d="M62.641,169.23C65.445,122.859 103.934,86.117 151.012,86.117C188.977,86.117 221.359,110.02 233.941,143.594C266.637,143.988 293.023,170.598 293.023,203.387C293.023,236.422 266.242,263.203 233.207,263.203L64.281,263.203C38.32,263.203 17.273,242.156 17.273,216.195C17.273,190.785 37.441,170.098 62.641,169.23Z" style="fill:rgb(240,245,247);fill-rule:nonzero;"/>
                <path d="M293.023,203.391C293.023,227.289 278.996,247.922 258.73,257.496C262.383,249.758 264.43,241.105 264.43,231.977C264.43,199.188 238.047,172.574 205.352,172.184C192.766,138.605 160.387,114.707 122.418,114.707C105.297,114.707 89.309,119.566 75.762,127.988C91.387,102.852 119.242,86.121 151.012,86.121C188.973,86.121 221.359,110.02 233.938,143.59C266.637,143.988 293.023,170.602 293.023,203.391Z" style="fill:rgb(221,233,237);fill-rule:nonzero;"/>
                <path d="M460.949,281.117C457.789,228.938 414.48,187.594 361.504,187.594C318.781,187.594 282.344,214.488 268.184,252.266C231.391,252.711 201.699,282.656 201.699,319.555C201.699,356.73 231.836,386.863 269.008,386.863L459.102,386.863C488.316,386.863 511.996,363.18 511.996,333.969C511.996,305.371 489.305,282.094 460.949,281.117Z" style="fill:rgb(196,225,232);fill-rule:nonzero;"/>
                <path d="M512,333.965C512,363.18 488.313,386.867 459.098,386.867L455,386.867C458.836,379.543 461.008,371.207 461.008,362.371C461.008,333.777 438.316,310.496 409.957,309.516C406.801,257.34 363.484,215.992 310.512,215.992C303.367,215.992 296.402,216.742 289.691,218.172C307.813,199.324 333.285,187.594 361.504,187.594C414.48,187.594 457.793,228.934 460.949,281.121C489.309,282.09 512,305.371 512,333.965Z" style="fill:rgb(164,213,221);fill-rule:nonzero;"/>
                <path d="M428.652,225.219C428.652,290.715 375.559,343.809 310.063,343.809C244.563,343.809 191.469,290.715 191.469,225.219C191.469,159.719 244.563,106.625 310.063,106.625C375.559,106.625 428.652,159.719 428.652,225.219Z" style="fill:rgb(246,203,67);fill-rule:nonzero;"/>
                <path d="M310.066,343.809C244.566,343.809 191.473,290.715 191.473,225.215C191.473,167.77 232.316,119.855 286.555,108.961C285.02,116.563 284.219,124.418 284.219,132.473C284.219,197.973 337.309,251.063 402.809,251.063C410.863,251.063 418.719,250.262 426.32,248.73C415.41,302.965 367.5,343.809 310.066,343.809Z" style="fill:rgb(250,176,60);fill-rule:nonzero;"/>
                <g>
                    <path d="M495.551,232.945L470.008,232.945C465.742,232.945 462.281,229.484 462.281,225.219C462.281,220.949 465.742,217.492 470.008,217.492L495.551,217.492C499.82,217.492 503.277,220.949 503.277,225.219C503.277,229.484 499.82,232.945 495.551,232.945Z" style="fill:rgb(248,233,142);fill-rule:nonzero;"/>
                    <path d="M448.586,152.973C445.918,152.973 443.32,151.586 441.891,149.105C439.754,145.41 441.02,140.684 444.719,138.551L466.84,125.781C470.535,123.648 475.258,124.91 477.391,128.609C479.527,132.305 478.262,137.027 474.563,139.16L452.441,151.934C451.227,152.637 449.898,152.973 448.586,152.973Z" style="fill:rgb(248,233,142);fill-rule:nonzero;"/>
                    <path d="M390.027,94.426C388.719,94.426 387.391,94.094 386.172,93.391C382.477,91.254 381.211,86.531 383.344,82.836L396.117,60.715C398.25,57.02 402.973,55.75 406.672,57.887C410.367,60.02 411.633,64.746 409.496,68.441L396.727,90.563C395.297,93.039 392.699,94.426 390.027,94.426Z" style="fill:rgb(248,233,142);fill-rule:nonzero;"/>
                    <path d="M310.063,72.996C305.793,72.996 302.336,69.535 302.336,65.27L302.336,39.727C302.336,35.461 305.793,32 310.063,32C314.328,32 317.785,35.461 317.785,39.727L317.785,65.27C317.789,69.535 314.328,72.996 310.063,72.996Z" style="fill:rgb(248,233,142);fill-rule:nonzero;"/>
                    <path d="M230.094,94.426C227.426,94.426 224.828,93.039 223.398,90.563L210.625,68.441C208.492,64.746 209.758,60.02 213.453,57.887C217.148,55.754 221.875,57.02 224.008,60.715L236.777,82.836C238.914,86.531 237.648,91.258 233.949,93.391C232.734,94.094 231.406,94.426 230.094,94.426Z" style="fill:rgb(248,233,142);fill-rule:nonzero;"/>
                </g>
                <path d="M259.25,281.117C256.09,228.938 212.781,187.594 159.805,187.594C117.082,187.594 80.645,214.488 66.484,252.266C29.691,252.711 0,282.656 0,319.555C0,356.727 30.137,386.863 67.309,386.863L257.402,386.863C286.617,386.863 310.301,363.18 310.301,333.965C310.297,305.371 287.605,282.094 259.25,281.117Z" style="fill:rgb(196,225,232);fill-rule:nonzero;"/>
                <path d="M310.301,333.965C310.301,363.18 286.613,386.867 257.398,386.867L253.301,386.867C257.137,379.543 259.309,371.207 259.309,362.371C259.309,333.777 236.617,310.496 208.258,309.516C205.102,257.34 161.785,215.992 108.812,215.992C101.668,215.992 94.703,216.742 87.992,218.172C106.113,199.324 131.586,187.594 159.805,187.594C212.781,187.594 256.094,228.934 259.254,281.121C287.609,282.09 310.301,305.371 310.301,333.965Z" style="fill:rgb(164,213,221);fill-rule:nonzero;"/>
                <path d="M418.566,374.793C415.41,322.613 372.098,281.27 319.125,281.27C276.398,281.27 239.961,308.164 225.801,345.941C189.012,346.387 159.32,376.336 159.32,413.23C159.32,450.406 189.453,480.539 226.629,480.539L416.723,480.539C445.934,480.539 469.617,456.855 469.617,427.645C469.617,399.047 446.926,375.77 418.566,374.793Z" style="fill:rgb(240,245,247);fill-rule:nonzero;"/>
                <path d="M469.621,427.641C469.621,456.855 445.934,480.543 416.719,480.543L412.621,480.543C416.457,473.219 418.629,464.883 418.629,456.047C418.629,427.453 395.938,404.172 367.578,403.191C364.422,351.016 321.105,309.668 268.129,309.668C260.984,309.668 254.02,310.418 247.309,311.848C265.434,293.004 290.906,281.27 319.125,281.27C372.102,281.27 415.414,322.609 418.57,374.797C446.93,375.766 469.621,399.047 469.621,427.641Z" style="fill:rgb(221,233,237);fill-rule:nonzero;"/>
                <path d="M392.191,368.938C388.703,368.938 385.539,366.555 384.688,363.016C383.793,359.297 382.57,355.629 381.051,352.117C379.355,348.199 381.156,343.652 385.074,341.957C388.992,340.262 393.539,342.066 395.234,345.98C397.105,350.309 398.609,354.824 399.711,359.402C400.711,363.555 398.152,367.723 394.004,368.723C393.398,368.867 392.789,368.938 392.191,368.938Z" style="fill:rgb(240,245,247);fill-rule:nonzero;"/>
                <path d="M373.371,334.578C371.34,334.578 369.313,333.781 367.797,332.199C354.93,318.793 337.645,311.41 319.125,311.41C314.859,311.41 311.398,307.953 311.398,303.684C311.398,299.418 314.859,295.961 319.125,295.961C341.891,295.961 363.137,305.031 378.945,321.504C381.898,324.578 381.801,329.473 378.723,332.426C377.223,333.863 375.297,334.578 373.371,334.578Z" style="fill:rgb(240,245,247);fill-rule:nonzero;"/>
                <path d="M78.875,404.938C81.133,367.633 112.098,338.078 149.969,338.078C180.516,338.078 206.563,357.305 216.688,384.313C242.992,384.633 264.219,406.039 264.219,432.418C264.219,458.996 242.676,480.539 216.098,480.539L80.195,480.539C59.313,480.539 42.379,463.609 42.379,442.723C42.379,422.281 58.602,405.637 78.875,404.937Z" style="fill:rgb(240,245,247);fill-rule:nonzero;"/>
                <path d="M264.219,432.422C264.219,458.77 243.031,480.172 216.762,480.531C224.637,471.957 229.441,460.535 229.441,447.988C229.441,421.613 208.219,400.203 181.906,399.883C171.785,372.879 145.738,353.645 115.188,353.645C111.578,353.645 108.035,353.918 104.566,354.438C116.891,344.219 132.711,338.082 149.969,338.082C180.516,338.082 206.563,357.305 216.684,384.316C242.996,384.637 264.219,406.039 264.219,432.422Z" style="fill:rgb(221,233,237);fill-rule:nonzero;"/>
            </g>
        </g>
    </g>
</svg>
