<?xml version="1.0" encoding="UTF-8" standalone="no"?><!DOCTYPE svg PUBLIC "-//W3C//DTD SVG 1.1//EN" "http://www.w3.org/Graphics/SVG/1.1/DTD/svg11.dtd"><svg width="100%" height="100%" viewBox="0 0 55 39" version="1.1" xmlns="http://www.w3.org/2000/svg" xmlns:xlink="http://www.w3.org/1999/xlink" xml:space="preserve" xmlns:serif="http://www.serif.com/" style="fill-rule:evenodd;clip-rule:evenodd;stroke-linejoin:round;stroke-miterlimit:1.41421;"><rect id="Artboard1" x="0" y="0" width="54.769" height="38.741" style="fill:none;"/><path d="M52.05,17.308c-1.447,-1.571 -3.325,-2.641 -5.383,-3.087c-0.671,-3.744 -2.564,-7.17 -5.413,-9.75c-3.183,-2.883 -7.303,-4.471 -11.6,-4.471c-6.916,0 -13.117,4.113 -15.845,10.368c-0.546,-0.075 -1.099,-0.112 -1.653,-0.112c-6.703,0 -12.156,5.454 -12.156,12.157c0,6.703 5.453,12.157 12.156,12.157l4.602,0c1.471,2.565 4.198,4.171 7.216,4.171c3.018,0 5.745,-1.606 7.216,-4.171l13.287,0c5.675,0 10.292,-4.618 10.292,-10.293c0,-2.59 -0.966,-5.065 -2.719,-6.969Z" style="fill:#e76cb0;fill-rule:nonzero;"/></svg>