<svg width="120" height="120" viewBox="0 0 120 120" fill="none" xmlns="http://www.w3.org/2000/svg">
<g clip-path="url(#clip0)">
<path d="M5.92335 6.34381C3.7992 7.17326 3.03467 11.3519 3.91077 13.3094C4.56397 14.7682 6.42889 15.3309 7.5928 16.3043C6.65881 17.0083 4.41514 17.5887 3.83717 18.7458C3.14858 20.1234 4.15499 23.0714 4.2328 24.5372C4.3767 27.2515 4.36686 30.0091 4.4142 32.7258C4.49788 37.5293 4.91717 42.3166 5.26499 47.1056C5.44335 49.563 5.60881 52.0221 5.69694 54.4844C5.75999 56.2467 6.21186 58.878 5.14991 60.3979C4.36546 61.5208 3.24256 62.138 2.67069 63.4994C1.38655 66.5562 1.84944 71.3512 1.84874 74.6625C1.8485 77.5542 1.71795 80.0651 2.55022 82.7953C3.36655 85.4733 3.2067 88.2487 3.20694 91.0272C3.20764 94.8077 3.23928 98.6306 3.61827 102.372C3.87374 104.89 4.99053 106.052 7.64014 106.116C9.65225 106.164 11.7279 105.783 13.7941 105.793C16.4838 105.807 19.0317 105.675 21.6926 105.399C26.7595 104.873 32.5336 105.304 37.6369 105.565C47.5851 106.074 57.3501 104.432 67.2684 104.433C71.7452 104.433 76.1526 104.641 80.617 104.312C83.0871 104.13 85.5333 104.273 88.0005 104.287C90.6028 104.302 93.0101 105.016 95.584 105.044C98.1192 105.071 100.393 105.864 102.954 105.892C106.031 105.924 109.09 105.393 112.101 104.816C118.379 103.615 117.147 98.618 117.142 93.4737C117.139 90.2292 117.079 86.9639 117.088 83.7298C117.096 80.988 118.563 78.4544 118.684 75.6799C118.839 72.1626 118.221 68.7044 117.787 65.2317C117.645 64.0875 117.513 62.7077 116.725 61.8206C115.637 60.5969 113.996 60.2236 114.165 58.2965C114.234 57.4992 114.796 56.6421 114.909 55.7777C115.056 54.6501 115.002 53.5031 115.063 52.3699C115.339 47.2331 115.627 42.0961 115.781 36.9447C115.942 31.5302 117.636 25.4782 116.535 20.111C116.273 18.8315 116.372 18.9902 115.243 18.2137C114.141 17.4555 112.613 17.1239 113.582 15.9335C114.477 14.8338 115.688 15.0893 116.148 13.2799C116.421 12.2067 116.299 11.2148 116.082 10.1083C115.607 7.68701 113.785 6.02647 111.223 6.49498C108.152 7.05654 107.37 10.676 108.39 13.2853C108.668 13.9959 109.665 15.323 108.849 16.0727C108.307 16.5708 106.275 15.9897 105.596 16.1526C103.527 16.649 103.512 20.1677 103.292 22.1747C103.16 23.3789 103.474 26.1056 102.214 26.685C101.191 27.1551 98.4586 26.2568 97.3221 26.1204C95.1044 25.8544 92.8783 25.657 90.6513 25.4904C86.3126 25.1658 81.9647 24.9804 77.6196 24.7579C72.8653 24.5144 68.0838 23.5209 63.311 23.6866C56.5962 23.9194 49.8783 24 43.181 24.5444C37.0819 25.0404 30.9473 25.5949 24.8259 25.8185C22.758 25.894 20.6892 25.8747 18.622 25.9776C17.1433 26.0512 16.4707 26.3247 16.3636 24.7898C16.1822 22.1937 17.8465 18.9267 15.6215 16.5907C14.388 15.2955 11.7982 15.9426 10.3012 16.1379C11.8076 14.1858 13.1381 10.2239 11.8905 7.84732C11.2507 6.6274 7.63756 4.19389 5.92335 6.34381Z" fill="#EA8D4E"/>
<path d="M5.31996 7.55112C2.39168 8.7748 3.7459 14.8271 5.69121 16.3046C6.68144 17.0567 7.35222 16.8553 5.34926 17.7912C4.67074 18.1081 4.3091 17.9138 3.91816 18.5035C3.63527 18.9298 3.82324 19.7895 3.80941 20.2721C3.7541 22.2026 3.77613 24.1493 3.82277 26.0801C3.95777 31.6925 4.70683 37.2488 5.32699 42.8042C5.78426 46.9006 5.88855 51.0675 6.06855 55.1768C6.10394 55.9847 6.05566 58.7075 6.81644 59.2048C7.80152 59.8489 12.0911 57.9757 12.5668 56.9923C12.9184 56.2655 12.1635 54.5745 12.0121 53.8247C11.5869 51.7203 11.2518 49.602 10.9555 47.4762C10.3677 43.2532 10.0236 39.0678 10.0025 34.8073C9.97887 30.1392 9.79183 25.49 10.0264 20.8245C10.1551 18.2698 10.4111 16.0585 9.08426 13.7726C8.30261 12.4254 7.01472 11.3152 6.68754 9.75495C6.47215 8.72769 7.11691 7.43605 5.31996 7.55112Z" fill="#CC6D3E"/>
<path d="M16.638 26.7165C16.4463 30.8658 16.3139 35.7828 18.2775 39.5511C20.193 43.2277 23.6421 45.2825 27.4598 46.5568C32.3923 48.2028 37.8719 50.4992 41.4567 54.245C44.9913 57.9387 47.0276 57.9153 51.8119 57.3427C55.7046 56.8768 59.7466 56.1172 63.6888 56.288C66.3696 56.4043 71.5273 57.848 70.5227 53.6933C69.9309 51.2455 69.1336 49.3993 69.0117 46.8228C68.9016 44.4959 68.8249 41.8344 67.8363 39.6753C67.1477 38.1711 66.386 37.174 64.7812 36.9657C63.7498 36.8319 62.4961 37.2158 61.5051 37.4881C59.1211 38.143 56.9184 38.7394 54.4087 38.9169C49.5286 39.2621 44.8146 39.0355 39.9373 38.8337C37.9385 38.7509 36.0609 38.4781 34.1245 37.9735C32.0541 37.4342 28.9828 37.1075 27.333 35.6717C25.7041 34.2542 24.0426 30.9237 24.018 28.6995C24.0058 27.6193 24.7772 26.6079 23.5423 25.9815C22.7944 25.602 21.064 26.3792 20.3395 26.5615C19.2225 26.8428 16.6059 26.6431 16.638 26.7165Z" fill="#CC6D3E"/>
<path d="M104.316 16.1528C103.129 21.8127 103.353 27.4595 103.145 33.1647C102.99 37.4315 102.379 41.5314 101.982 45.7661C101.761 48.1312 100.799 54.1588 102.591 56.2881C103.288 57.1164 104.635 57.063 105.691 57.0503C109.423 57.0058 108.222 52.7095 108.272 49.8784C108.423 41.2844 109.759 32.7883 109.749 24.2214C109.746 22.5332 109.437 20.4302 109.927 18.7802C110.344 17.3774 111.477 17.0507 112.147 16.0349C113.102 14.5888 112.555 12.0604 112.612 10.4734C112.638 9.7729 113.287 7.51962 112.92 6.94399C112.043 5.57079 110.115 7.25852 109.451 7.99634C108.872 8.6397 108.121 9.47571 107.937 10.3314C107.607 11.8663 108.902 13.5918 108.658 15.0074C108.511 15.8584 108.985 15.8432 107.596 16.0249C106.86 16.1212 106.472 15.4619 105.74 15.8634C104.755 16.4034 104.876 17.4339 104.316 16.1528Z" fill="#CC6D3E"/>
<path d="M2.60351 82.2504C3.66453 87.0858 2.44203 92.4811 2.45304 97.3845C2.4575 99.2864 2.13148 104.91 4.25539 106.108C4.62851 106.318 6.01414 106.098 6.38633 106.081C8.03656 106.007 9.67086 105.94 11.3333 105.944C17.1983 105.96 23.0731 105.356 28.9365 105.188C33.1541 105.068 37.4054 105.584 41.6115 105.269C45.1414 105.005 48.6345 104.879 52.179 104.886C54.0186 104.89 55.7192 104.578 57.5572 104.584C59.7012 104.591 61.8247 104.919 63.9622 105.041C66.1295 105.165 68.3026 105.114 70.4748 105.106C75.0244 105.089 79.5741 105.072 84.1238 105.056C84.9941 105.052 85.6871 105.196 86.5212 105.332C87.6589 105.518 88.929 105.381 90.0807 105.38C92.492 105.379 94.9034 105.342 97.3126 105.244C99.0969 105.171 116.897 106.668 116.253 103.247C115.906 101.407 112.492 101.38 111.206 101.3C106.81 101.028 102.402 101.104 97.9953 101.104C88.4281 101.104 78.8049 101.245 69.2724 100.441C65.3738 100.112 61.4659 99.9882 57.5691 99.5944C53.6494 99.1983 49.7391 98.3867 46.1194 96.6959C43.809 95.6168 40.7891 93.5921 41.3455 90.5773C42.3938 84.8963 49.7471 88.332 53.217 88.9371C56.473 89.505 59.4648 88.5671 62.7118 88.3594C64.408 88.2509 65.8473 88.4883 67.5071 88.6664C69.5795 88.8886 71.3874 88.2647 73.4129 87.9642C81.7719 86.7253 90.4939 86.666 98.9068 87.0528C103.832 87.2792 109.854 88.0048 113.918 84.8142C115.046 83.929 115.967 82.9521 116.252 81.4838C116.866 78.3129 114.952 77.5678 112.384 76.5094C108.638 74.9649 105.365 73.5673 101.242 73.279C97.2315 72.9987 93.3568 72.7948 89.3987 71.996C85.239 71.1565 81.1128 70.8115 76.8924 70.4988C72.0519 70.1405 67.3913 69.1153 62.5862 68.5943C52.0011 67.4468 41.4701 69.1702 30.9031 69.4111C24.6355 69.5541 18.4259 69.3455 12.1604 69.9938C5.93726 70.6385 3.48547 76.3678 2.60351 82.2504Z" fill="#CC6D3E"/>
<path d="M9.395 105.641C9.15968 106.995 8.52617 110.533 9.41422 111.79C10.032 112.665 12.2628 112.82 13.1785 112.892C15.118 113.045 17.109 112.872 19.0527 112.96C20.4237 113.023 21.7602 113.22 23.0251 112.739C24.0556 112.347 24.687 111.603 25.1227 110.669C25.7105 109.409 25.7429 106.685 24.4505 105.781C23.0307 104.789 19.0834 105.77 17.3677 105.615C15.5258 105.45 10.9304 104.547 9.395 105.641Z" fill="#C45339"/>
<path d="M95.5412 105.316C95.1634 107.556 93.3998 111.307 96.0707 112.406C97.908 113.162 99.9782 113.071 101.916 113.117C103.858 113.163 105.859 113.337 107.782 113.252C108.52 113.219 110.44 113.061 110.937 112.528C111.907 111.486 110.967 109.323 110.783 108.149C110.65 107.302 111.059 106.474 110.366 105.949C109.314 105.153 106.101 105.32 104.841 105.315C102.173 105.305 99.5277 105.553 95.5412 105.316Z" fill="#C45339"/>
<path d="M9.65384 106.219C9.5233 107.848 9.09158 110.483 9.6508 112.118C9.92947 112.932 10.2407 112.885 11.2012 113.114C12.7122 113.473 15.9808 113.839 17.2277 112.664C18.055 111.885 17.7838 110.563 17.8085 109.525C17.8321 108.531 18.5015 106.157 17.7888 105.491C17.3099 105.043 15.3288 105.139 14.842 105.125C13.2067 105.076 11.2938 104.896 9.65384 106.219Z" fill="#AD3E2B"/>
<path d="M95.5157 106.038C95.2047 107.658 94.7727 110.12 95.4833 111.662C95.9612 112.7 96.4131 112.698 97.5161 112.751C98.9092 112.817 102.646 113.955 103.682 112.618C104.28 111.846 103.742 109.752 103.795 108.824C103.829 108.228 104.51 105.804 103.958 105.234C103.492 104.753 101.819 104.938 101.288 104.96C99.8624 105.016 98.2825 105.568 95.5157 106.038Z" fill="#AD3E2B"/>
<path d="M14.2497 35.4844C11.5717 35.4582 9.84599 37.2629 11.1552 39.8902C11.9516 41.4879 14.2818 41.5986 15.0592 43.2619C15.9782 45.2279 15.2692 48.6394 15.1588 50.7765C15.0585 52.719 15.6322 54.4911 15.7485 56.3644C11.9022 56.84 7.02318 59.0998 4.19709 61.8012C1.89623 64.0008 1.78841 67.4787 2.0249 70.4747C2.27943 73.6997 1.99982 76.9543 2.3924 80.175C2.85506 83.9656 6.82841 86.0729 10.4247 84.8923C11.759 84.4543 13.5505 83.6518 14.5747 82.643C15.6102 81.6235 15.8926 80.3274 17.4674 81.5497C18.2432 82.1518 18.4086 83.2611 19.1303 83.9086C20.1505 84.8241 21.7098 84.8623 23.0005 84.7109C24.2962 84.5588 25.3082 83.9504 26.3326 83.1375C26.8919 82.6939 27.4759 81.7648 28.183 81.638C29.2607 81.4447 30.1508 83.0679 31.0307 83.757C32.3204 84.7667 33.879 85.4768 35.5783 85.0172C36.2045 84.8478 37.274 84.3528 37.7835 83.9532C38.4088 83.4631 38.6176 82.4386 39.2383 82.0004C40.8104 80.8901 41.5464 82.6353 42.6079 83.6131C44.2447 85.1208 46.3089 85.3718 48.4466 85.1274C49.5622 84.9999 50.8229 84.7304 51.7773 84.1386C52.7113 83.5594 52.8503 82.7478 53.6289 82.122C55.3208 80.7622 55.6656 83.0461 56.9837 83.9569C58.2709 84.8461 61.3347 85.1422 62.7055 84.324C63.9512 83.5803 64.3633 82.0908 65.124 80.9257C66.4309 81.4857 66.6543 83.5245 67.8857 84.3333C69.2411 85.2235 71.9727 85.2179 73.4755 84.8956C74.6504 84.6439 75.6184 83.9893 76.6002 83.3431C77.3959 82.8195 78.9944 81.0443 80.0523 81.069C81.295 81.098 82.5688 83.0982 83.4976 83.8318C84.8678 84.9139 86.2021 85.7002 88.0089 85.384C91.6232 84.7517 89.7299 80.3452 94.2156 82.2772C96.2226 83.1415 97.0867 85.164 99.6093 84.6279C101.646 84.1953 103.693 82.5643 104.462 80.7711C107.008 85.4968 115.534 87.0453 117.273 80.8941C118.287 77.3056 118.042 72.5869 117.682 68.8913C117.452 66.5304 117.242 63.9376 115.514 62.1549C112.742 59.2958 109.413 59.0204 105.902 57.7461C102.644 56.5632 104.518 54.2579 105.158 51.8541C105.449 50.7603 105.796 49.242 105.733 48.1037C105.679 47.1324 105.115 46.1246 105.253 45.1313C105.662 42.1787 111.443 40.084 109.343 36.7712C108.142 34.8748 105.399 35.2416 103.449 35.9731C102.337 36.3898 101.612 37.3618 100.412 37.4637C99.1394 37.572 97.6635 36.6734 96.4253 36.4039C92.7128 35.5953 88.6183 35.8022 84.8338 35.9459C82.0593 36.0512 79.2693 36.1337 76.5154 36.5487C75.0784 36.7653 73.0694 37.4797 71.6345 36.8154C69.1923 35.6848 68.2518 32.8758 64.9384 33.5147C61.0567 34.2631 64.5569 38.1587 65.4076 39.9472C66.5408 42.3298 65.0802 45.5541 65.4714 48.1217C65.7772 50.1284 67.3211 52.8436 66.6777 54.8801C65.8696 57.439 58.8355 56.3827 56.6057 56.3827C51.0182 56.3827 53.9884 52.3198 54.6918 48.7315C55.1247 46.5244 54.0348 44.6834 54.0777 42.4533C54.1236 40.0576 59.7013 35.2329 56.0591 33.814C52.9396 32.5986 50.507 36.6701 47.9905 36.7287C46.2512 36.7693 44.4965 36.241 42.7044 36.2405C40.1931 36.2403 37.7125 35.8779 35.219 35.9265C31.8817 35.9912 28.1849 36.2675 24.9022 36.8129C24.0001 36.9626 23.4932 37.295 22.6363 37.6067C20.6479 38.3309 15.7888 36.9087 14.2497 35.4844Z" fill="#F2F1E8"/>
<path d="M38.9346 62.4415C41.1433 70.5603 50.2642 69.7074 56.6969 70.6599C60.3981 71.2079 64.5435 71.8592 68.0273 73.2596C69.5969 73.8903 71.0043 74.8606 72.596 75.4374C74.3882 76.0873 75.9506 76.0039 77.8206 76.2076C81.1467 76.5697 84.3302 76.6125 87.6384 76.6772C90.3618 76.7304 93.539 76.7342 95.5483 78.7686C96.4014 79.6322 98.5328 83.0389 96.7823 83.7608C95.1949 84.4154 93.8024 81.8468 92.2005 81.8119C89.2851 81.7484 87.9367 86.8015 84.3679 85.3733C82.4303 84.5977 81.7963 82.2026 79.5752 82.156C77.6758 82.1161 77.2319 83.5721 75.8821 84.5251C73.2824 86.3611 67.6476 85.7 66.4448 82.3819C66.1377 81.5358 66.3133 80.0342 65.002 80.6722C64.896 80.7237 64.5789 81.9415 64.4969 82.0927C63.4197 84.069 60.1382 85.4356 57.9862 84.6957C57.1049 84.3926 56.2277 83.6183 55.6136 82.9667C55.308 82.6425 55.5035 82.0161 55.0059 81.8197C54.0248 81.4325 50.86 84.4343 49.8374 84.7815C47.635 85.5291 45.6388 85.7841 43.5421 84.6343C42.7054 84.1756 41.831 83.5859 41.1632 82.9369C40.541 82.3315 40.5253 81.5302 39.5104 81.5311C38.4827 81.5318 36.3536 83.7207 35.4234 84.2705C33.3487 85.4965 31.1751 86.0459 29.7018 83.36C28.9298 81.9518 29.7972 80.7915 27.8484 81.2058C25.8935 81.6216 24.2578 83.4636 22.2245 84.0289C20.1424 84.608 18.8282 84.6404 16.9082 83.4467C16.5984 83.254 16.011 83.1108 15.7647 82.8638C15.5697 82.6681 15.7949 81.946 15.6028 81.8201C15.0618 81.4662 14.9749 81.5747 14.3261 81.725C12.6677 82.1091 11.1871 83.8587 9.39369 84.3315C7.21986 84.9043 5.14494 85.0297 3.8997 82.8275C2.4733 80.3044 2.32002 77.1387 1.9258 74.3579C1.56884 71.8409 1.54869 69.4897 2.41564 67.0564C4.61244 60.8893 10.0366 58.2898 16.0256 56.9874C20.0343 56.1155 24.6358 55.7637 28.6017 56.9506C30.6267 57.5567 32.5975 58.1712 34.5084 59.0726C36.5125 60.0186 38.425 61.3048 38.9346 62.4415Z" fill="#D2D2CA"/>
<path d="M25.1533 36.8475C23.2298 44.2471 31.6907 47.3184 36.9593 49.5428C39.6389 50.6742 42.5072 51.0424 45.2069 52.0776C46.0626 52.4055 47.5783 52.9605 47.7011 54.0457C48.0466 57.1007 41.445 55.5501 39.8786 55.4791C35.129 55.2637 30.4589 55.784 25.7154 55.9411C23.6093 56.0109 21.5022 56.0036 19.3957 56.0772C18.6192 56.1044 16.6446 56.6573 15.9384 56.2425C15.0792 55.7376 15.4216 55.158 15.3867 54.276C15.3302 52.8518 15.0886 51.4835 15.007 50.0442C14.9001 48.164 15.5388 45.3585 14.4192 43.7425C12.8864 41.53 10.6322 41.2335 10.9038 37.81C11.3979 31.5874 22.0633 38.8148 25.1533 36.8475Z" fill="#D2D2CA"/>
<path d="M63.9227 33.5156C62.426 35.6787 63.5758 36.6553 64.6797 38.5545C65.5673 40.0812 65.9404 40.9287 65.5839 42.7404C65.0189 45.6138 65.0411 48.3054 65.5924 51.2096C66.1401 54.0945 65.8896 55.5277 69.105 55.4782C75.7954 55.3753 83.4825 52.7098 90.1134 54.5546C92.3826 55.1857 94.4491 56.4352 96.7935 56.8493C99.2116 57.2764 100.675 56.4 102.821 55.5999C103.058 52.238 98.5546 48.3954 96.0951 46.7918C93.7253 45.2471 91.1878 43.8087 88.4156 43.275C85.4519 42.7043 82.36 42.8311 79.432 42.128C75.7413 41.2416 73.0546 40.0713 71.1581 36.8979C70.3291 35.5097 67.5684 32.1474 63.9227 33.5156Z" fill="#D2D2CA"/>
<path d="M25.0017 36.8474C23.7117 38.6106 23.9137 42.605 23.8242 44.6544C23.7215 46.9949 23.6582 49.4415 23.8246 51.7806C23.8821 52.5892 23.916 53.9949 24.4003 54.6955C24.9848 55.5416 24.5861 55.1061 25.5967 55.5048C26.6238 55.9098 29.594 56.7962 30.675 56.2206C32.7466 55.1174 30.7115 48.7773 30.611 46.8352C30.513 44.9424 30.6367 43.4389 30.9161 41.5836C31.1615 39.9524 31.747 37.8702 31.4571 36.2647C30.1132 36.1829 27.2214 36.1189 25.0017 36.8474Z" fill="#DB3333"/>
<path d="M74.7101 36.569C74.3936 36.9998 74.254 37.7932 74.1056 38.2666C73.657 39.6984 73.3701 41.1806 73.249 42.6759C73.1887 43.4196 72.9098 44.1234 72.8922 44.8615C72.8709 45.7453 72.9661 46.6406 73.0059 47.5235C73.079 49.1334 73.331 50.7375 73.6851 52.3C73.796 52.7897 74.0972 54.5918 74.3782 54.8803C75.5318 56.0641 78.2404 55.2848 79.6422 55.1641C81.0302 55.0446 81.0185 55.4245 81.3384 54.1068C81.8627 51.9492 80.9186 48.7701 80.7588 46.5921C80.5985 44.4054 80.5701 42.2191 80.7459 40.0406C80.8179 39.15 81.4251 37.5124 81.037 36.6199C80.3829 35.1159 77.2134 35.6013 76.0427 35.9297C75.6708 36.034 75.0841 36.1718 74.8031 36.4579C74.7705 36.4917 74.7396 36.5287 74.7101 36.569Z" fill="#DB3333"/>
<path d="M118.397 82.7875C119.866 80.6509 120.063 77.6952 119.986 75.1994C119.896 72.3173 120.139 69.3266 119.738 66.4726C119.326 63.538 117.796 61.4455 115.45 59.8895C115.459 59.8408 115.471 59.7941 115.475 59.7419C115.738 56.2602 115.677 52.7577 115.923 49.2707C116.153 46.0166 116.385 42.763 116.6 39.508C116.975 33.8348 117.483 28.1725 117.502 22.4901C117.508 20.9162 117.943 18.8158 116.809 17.5075C116.318 16.9408 115.482 16.7404 114.795 16.4812C114.887 16.4322 114.976 16.3827 115.058 16.3328C116.195 15.6386 117.011 14.4313 117.39 13.1704C118.064 10.93 117.508 8.23327 115.772 6.6121C113.903 4.86624 110.577 4.54608 108.624 6.33694C106.758 8.04764 106.526 11.0345 107.249 13.333C107.404 13.8271 107.631 14.3387 107.918 14.8237C107.086 14.691 106.262 14.6423 105.513 14.804C104.014 15.1276 103.384 16.4401 103.152 17.8408C102.709 20.5213 102.547 23.3038 102.426 26.0221C100.13 25.0912 97.6451 24.8671 95.1727 24.7213C92.3117 24.5528 89.4598 24.3271 86.6012 24.1326C83.7915 23.9413 80.9808 23.7683 78.1719 23.563C76.9559 23.4161 75.7306 23.3219 74.5051 23.2312C73.6407 23.1463 72.7714 23.0706 71.9068 23.0331C68.3 22.7577 64.6995 22.5688 61.0786 22.5351C57.2396 22.4994 53.4151 22.5315 49.5903 22.8817C47.7711 23.0481 45.9458 23.1585 44.1291 23.3493C43.9772 23.3652 43.8298 23.3887 43.6819 23.4114C43.2819 23.4498 42.8844 23.4857 42.4908 23.5152C39.4613 23.7426 36.4297 23.9258 33.3987 24.1323C30.5401 24.3269 27.6879 24.5526 24.8272 24.7211C22.3547 24.8669 19.8694 25.0912 17.574 26.0219C17.4526 23.3033 17.2908 20.5208 16.8474 17.8405C16.6158 16.4399 15.9851 15.1274 14.487 14.8037C13.7377 14.642 12.9134 14.6908 12.0821 14.8234C12.3687 14.3385 12.5954 13.8269 12.751 13.3328C13.4743 11.0343 13.242 8.04764 11.3759 6.33671C9.42263 4.54585 6.09685 4.866 4.22748 6.61186C2.4917 8.23304 1.93599 10.93 2.61006 13.1701C2.98927 14.4311 3.8056 15.6383 4.94209 16.3326C5.02342 16.3823 5.11248 16.4319 5.20482 16.4809C4.51763 16.7399 3.68185 16.9405 3.1906 17.5073C2.05646 18.8155 2.49216 20.916 2.49732 22.4898C2.51701 28.1723 3.02443 33.8345 3.39943 39.5078C3.61459 42.7628 3.84615 46.0166 4.07654 49.2705C4.32334 52.7575 4.26146 56.26 4.52513 59.7416C4.52935 59.7941 4.54084 59.8405 4.54974 59.8893C2.20341 61.4453 0.673649 63.5378 0.261852 66.4724C-0.138929 69.3264 0.104352 72.317 0.0143523 75.1991C-0.0632258 77.695 0.133884 80.6509 1.60295 82.7873C1.69084 84.9873 1.26287 87.22 1.27295 89.4297C1.28443 91.9544 1.6067 94.4774 1.57951 96.9988C1.54857 99.8423 0.623024 104.22 3.44115 106.122C4.83404 107.063 6.77748 107.042 8.39091 107.02C7.91138 109.142 7.45435 112.119 8.88451 113.594C10.6644 115.43 14.3173 114.768 16.5772 114.643C19.1684 114.5 22.4897 115.249 24.7944 113.727C26.6436 112.507 27.173 108.627 25.9276 106.645C27.6415 106.597 29.3558 106.565 31.0704 106.583C34.2233 106.616 37.3634 106.672 40.5111 106.452C42.0896 106.342 43.6686 106.215 45.2483 106.105C46.1483 106.133 47.0485 106.157 47.9508 106.169C52.6494 106.233 57.3486 106.214 62.0464 106.343C68.4893 106.52 75.0029 106.877 81.4646 106.555C83.9513 106.648 86.4361 106.609 88.929 106.583C90.6439 106.565 92.3583 106.597 94.0721 106.645C92.8266 108.627 93.3561 112.507 95.2051 113.727C97.5099 115.249 100.831 114.5 103.422 114.643C105.683 114.768 109.335 115.43 111.115 113.594C112.545 112.119 112.088 109.142 111.609 107.02C113.222 107.042 115.165 107.063 116.558 106.122C119.376 104.22 118.451 99.8423 118.42 96.9988C118.393 94.4774 118.715 91.9544 118.727 89.4297C118.737 87.2202 118.309 84.9876 118.397 82.7875ZM112.864 7.58194C114.814 8.10483 115.635 10.2691 115.275 12.1227C115.095 13.0499 114.646 13.8775 113.927 14.4932C113.406 14.9401 112.717 15.1159 112.084 15.3564C111.288 15.0414 110.619 14.7149 110.099 13.9473C109.506 13.0729 109.213 11.9962 109.19 10.9462C109.14 8.73624 110.477 6.9421 112.864 7.58194ZM104.546 26.4344C104.753 23.688 104.806 20.796 105.385 18.0972C105.7 16.626 106.628 17.0026 107.893 17.2682C110.036 17.7177 112.254 18.0226 114.303 18.8148C115.147 19.1408 115.168 18.9255 115.243 19.8948C115.306 20.7069 115.216 21.5263 115.198 22.3382C115.146 24.5863 115.146 26.7948 114.938 29.0404C114.464 34.1495 114.164 39.2744 113.781 44.3912C113.431 49.0771 112.852 53.856 113.057 58.5679C110.686 57.4288 108.122 56.6012 105.6 55.9724C105.539 55.9574 105.478 55.9445 105.418 55.9298C106.458 54.1544 107 51.8399 107.122 49.933C107.2 48.7028 106.961 47.4747 106.777 46.2637C106.624 45.2594 106.287 43.7744 107.016 42.939C107.595 42.276 108.526 41.935 109.15 41.2975C109.75 40.6839 110.223 39.9212 110.409 39.0789C110.766 37.472 109.911 35.9502 108.574 35.0854C107.219 34.2086 105.44 33.9241 103.865 34.3049C104.052 31.6862 104.348 29.0514 104.546 26.4344ZM30.1615 51.2329C30.2799 52.0937 30.3936 53.2126 30.7276 54.1654C28.9983 54.1682 27.2712 54.2113 25.5486 54.318C25.0857 53.2258 24.7379 52.244 24.5881 50.976C24.4196 49.5512 24.3434 48.0962 24.3054 46.6626C24.2262 43.6736 24.7442 40.7983 25.1586 37.8787C25.6503 37.7444 26.1418 37.6098 26.6361 37.4898C28.0416 37.1486 29.5039 37.0096 30.9631 36.9271C30.7006 38.0528 30.5811 39.2359 30.4358 40.3567C30.1913 42.2437 30.0125 44.1459 29.9447 46.0478C29.8833 47.7794 29.9253 49.5149 30.1615 51.2329ZM37.126 56.7543C39.9226 56.8209 42.7079 56.9352 45.4906 57.029C49.1731 57.3299 52.8615 57.5894 56.5566 57.6091C60.2579 57.629 63.9542 57.4063 67.6479 57.1787C72.7194 57.1558 77.7788 56.8757 82.8739 56.7543C89.255 56.6022 95.694 56.6732 101.973 57.9459C104.64 58.4866 107.292 59.2204 109.834 60.2097C109.473 60.1719 109.112 60.1403 108.751 60.1131C105.516 59.8684 102.25 59.7831 99.0099 59.6043C90.7076 59.1466 82.422 60.0883 74.1849 61.0194C65.9187 61.9539 57.6019 62.8888 49.2706 62.432C41.4331 62.0022 33.7055 60.4115 25.8676 59.9612C21.7962 59.7273 17.69 59.7712 13.6522 60.3916C10.5809 60.8636 7.74427 61.7167 5.02201 62.9772C6.21287 61.9234 7.77076 61.2001 9.18896 60.6034C12.0235 59.4112 15.0162 58.5562 18.027 57.9459C24.3059 56.6734 30.7451 56.6022 37.126 56.7543ZM53.7364 45.5786C53.75 47.2572 53.5545 48.9217 53.1636 50.5537C52.8162 52.004 51.9308 53.5591 51.8656 55.0445C48.852 54.9384 45.8412 54.7469 42.8253 54.6719C42.5274 54.6644 42.23 54.655 41.9321 54.6461C38.833 54.4077 35.7324 54.231 32.6382 54.1794C32.4258 53.0985 31.899 51.9728 31.7251 50.9127C31.4377 49.1589 31.3864 47.3657 31.4192 45.5919C31.4504 43.9173 31.5788 42.2488 31.7274 40.5812C31.8343 39.385 32.0225 38.1395 32.0258 36.9182C32.3061 36.9236 32.5878 36.9243 32.8737 36.9137C34.6676 36.8481 36.4665 36.7527 38.2613 36.828C39.9746 36.8999 41.6642 37.1744 43.3686 37.3403C45.1622 37.5149 46.8969 37.6532 48.6169 38.2194C49.1222 38.3856 49.8394 38.1168 50.0778 37.6248C50.7718 36.193 53.0862 34.4507 54.6861 34.2515C55.8727 34.1036 56.2805 35.0451 56.0574 36.0805C55.7907 37.3171 54.6814 37.9858 53.9239 38.9059C52.2804 40.903 53.7181 43.292 53.7364 45.5786ZM73.5125 54.2394C72.4951 54.283 71.4835 54.3402 70.4851 54.4042C69.6856 54.4553 68.8862 54.508 68.0869 54.5605C67.8842 53.2241 67.1464 51.8472 66.8365 50.5537C66.4454 48.9217 66.2501 47.2572 66.2637 45.5786C66.282 43.292 67.7199 40.903 66.076 38.9059C65.3185 37.9858 64.2092 37.3171 63.9425 36.0805C63.7191 35.0451 64.1272 34.1036 65.3138 34.2515C66.9134 34.4507 69.2281 36.193 69.9221 37.6248C70.1607 38.1168 70.8776 38.3856 71.3827 38.2194C72.1644 37.9621 72.9493 37.7957 73.7405 37.6717C73.4818 38.578 73.3191 39.5291 73.1562 40.4017C72.8518 42.0316 72.6741 43.6921 72.5979 45.348C72.4681 48.1691 72.5087 51.4956 73.5125 54.2394ZM79.6463 45.2015C79.6697 47.1306 79.7082 49.0609 79.8971 50.9814C79.9951 51.9758 79.9407 53.1932 80.1308 54.2664C78.5082 54.1595 76.8676 54.1459 75.2337 54.1834C74.9065 52.7472 74.4842 51.3686 74.3108 49.8883C74.1256 48.3074 74.079 46.7076 74.1272 45.1176C74.1758 43.5159 74.3363 41.9183 74.5794 40.3347C74.7247 39.3869 74.9867 38.4372 75.1744 37.4851C75.6565 37.4333 76.1412 37.3876 76.6311 37.3401C77.821 37.2241 79.0037 37.0567 80.1919 36.9409C80.014 37.7535 79.9365 38.6008 79.8495 39.3709C79.6318 41.3019 79.6229 43.2611 79.6463 45.2015ZM107.224 37.0279C109.323 38.2309 107.427 39.8915 106.147 40.7701C104.842 41.6673 104.172 42.7966 104.099 44.3854C104.004 46.4509 104.752 48.4787 104.374 50.5419C104.069 52.2039 103.206 53.7301 102.825 55.3579C95.9497 54.0177 88.9683 53.9795 81.9779 54.3819C81.7081 51.3177 81.2705 48.2826 81.1243 45.2015C81.0392 43.4057 81.0083 41.6087 81.0924 39.8125C81.1388 38.8267 81.3162 37.8341 81.4386 36.8446C81.5387 36.839 81.6385 36.8319 81.7383 36.8277C83.5332 36.7525 85.3322 36.8479 87.1259 36.9135C87.6052 36.9311 88.0749 36.9226 88.5404 36.9008C90.1634 36.9803 91.7989 37.1101 93.3638 37.4901C95.0445 37.8981 96.6962 38.4756 98.4277 38.6369C100.023 38.7855 101.38 38.3223 102.742 37.5301C104.165 36.7021 105.634 36.1169 107.224 37.0279ZM17.6236 27.4136C23.2351 27.4225 28.8666 27.0449 34.4621 26.6446C37.4054 26.4341 40.3571 26.2759 43.2936 25.982C45.0706 25.8041 46.9552 25.6733 48.7543 25.2974C49.2129 25.284 49.6714 25.2742 50.1308 25.2571C53.8789 25.1172 57.6043 25.1139 61.3547 25.1842C65.1092 25.2545 68.8416 25.4507 72.5818 25.7793C74.1643 25.9183 75.7505 25.9851 77.3372 26.0387C80.0656 26.2944 82.8055 26.4494 85.5378 26.6446C91.1335 27.0449 96.7648 27.4223 102.376 27.4136C102.322 29.8895 102.459 32.3108 102.584 34.7779C101.351 35.3774 100.24 36.2247 98.7952 36.1808C96.8551 36.1218 94.9937 35.3437 93.0891 35.0373C90.5949 34.6363 88.0079 34.626 85.4879 34.6101C82.9205 34.5937 80.3555 34.7198 77.7879 34.7001C75.6483 34.6837 73.5507 34.7385 71.4847 35.2567C70.197 33.5755 68.0129 32.2816 66.0936 31.9157C63.3575 31.3942 61.4762 33.554 61.9048 36.1923C62.1394 37.6375 62.9958 38.6387 63.9582 39.681C64.7126 40.4983 64.8481 40.877 64.5615 41.9821C64.3599 42.7612 64.1248 43.5137 64.0341 44.3167C63.8131 46.2707 63.9519 48.2699 64.2699 50.2047C64.4883 51.5348 64.7684 53.3537 65.465 54.7298C62.4983 54.9154 59.5304 55.0729 56.5566 55.1123C55.8132 55.1221 55.0704 55.1172 54.3279 55.1064C55.1792 53.7015 55.4909 51.6599 55.7297 50.2047C56.0473 48.2699 56.1863 46.2707 55.9655 44.3167C55.8748 43.5137 55.6397 42.7612 55.438 41.9821C55.1515 40.877 55.2868 40.4983 56.0412 39.681C57.0033 38.6385 57.86 37.6375 58.0948 36.1923C58.5235 33.554 56.6422 31.3942 53.9061 31.9157C51.9868 32.2816 49.8026 33.5755 48.515 35.2567C46.4492 34.7385 44.3513 34.6839 42.2115 34.7001C39.6444 34.7195 37.0791 34.5937 34.5118 34.6101C31.9915 34.626 29.4045 34.6363 26.9105 35.0373C25.0058 35.3437 23.1448 36.1218 21.2042 36.1808C19.7593 36.2247 18.6483 35.3772 17.4158 34.7779C17.5404 32.3108 17.678 29.8895 17.6236 27.4136ZM17.2583 37.5301C18.6202 38.3221 19.9768 38.7852 21.5719 38.6369C22.4965 38.5508 23.3979 38.3453 24.2933 38.1112C23.3319 41.1266 23.1197 44.5351 23.1783 47.5886C23.2119 49.3155 22.8894 52.4812 23.8121 54.4459C21.5909 54.6365 19.3772 54.9287 17.1748 55.3581C16.7937 53.7304 15.9308 52.2041 15.6261 50.5422C15.2476 48.479 15.9961 46.4512 15.9012 44.3856C15.8281 42.7968 15.1585 41.6676 13.8528 40.7704C12.5733 39.8915 10.677 38.2312 12.7763 37.0281C14.3658 36.1169 15.8347 36.7021 17.2583 37.5301ZM4.72529 12.1227C4.36529 10.2691 5.18584 8.10483 7.13607 7.58194C9.52295 6.9421 10.8598 8.73624 10.8104 10.9462C10.7869 11.9962 10.4944 13.0726 9.90146 13.9473C9.38091 14.7147 8.71271 15.0412 7.91607 15.3564C7.28256 15.1159 6.59373 14.9401 6.07248 14.4932C5.35459 13.8773 4.90552 13.0497 4.72529 12.1227ZM4.75763 19.8948C4.83263 18.9255 4.85326 19.1408 5.69677 18.8148C7.74638 18.0226 9.96474 17.7177 12.1074 17.2682C13.3723 17.0026 14.3002 16.626 14.6157 18.0972C15.1948 20.7962 15.2478 23.688 15.4547 26.4344C15.6521 29.0514 15.9479 31.6862 16.1358 34.3047C14.5597 33.9238 12.7817 34.2083 11.4263 35.0851C10.0892 35.95 9.2349 37.4718 9.59115 39.0787C9.77795 39.921 10.2507 40.6837 10.8509 41.2973C11.4744 41.935 12.406 42.2758 12.9847 42.9388C13.7133 43.7741 13.3765 45.2591 13.224 46.2634C13.04 47.4744 12.8 48.7028 12.8787 49.9328C13.0008 51.8397 13.5422 54.1541 14.5826 55.9295C14.5222 55.9443 14.4615 55.9572 14.4012 55.9722C11.8782 56.601 9.31412 57.4286 6.94365 58.5676C7.14826 53.8558 6.56982 49.0766 6.21896 44.391C5.83599 39.2741 5.5367 34.1495 5.06279 29.0401C4.8542 26.7946 4.85396 24.5861 4.80263 22.338C4.78412 21.5263 4.69435 20.7069 4.75763 19.8948ZM22.4272 111.861C20.3213 112.315 18.0537 111.952 15.9106 112.098C14.6675 112.183 11.1008 112.818 10.4923 111.424C9.93966 110.156 10.5826 108.379 10.3278 106.95C11.551 106.89 12.773 106.819 14 106.851C17.1397 106.933 20.2775 106.825 23.416 106.721C23.4059 106.796 23.401 106.874 23.4073 106.957C23.5348 108.606 24.8274 111.344 22.4272 111.861ZM109.508 111.424C108.899 112.818 105.332 112.183 104.089 112.098C101.946 111.952 99.6786 112.315 97.5725 111.861C95.1727 111.344 96.4648 108.606 96.5926 106.958C96.5989 106.875 96.594 106.797 96.5839 106.721C99.7224 106.825 102.86 106.933 106 106.852C107.227 106.82 108.449 106.891 109.672 106.951C109.418 108.379 110.06 110.156 109.508 111.424ZM116.258 88.8899C116.189 91.5939 115.789 94.2953 115.793 96.9993C115.794 98.537 115.986 100.074 115.863 101.612C115.734 103.214 115.308 104.062 113.651 104.229C111.844 104.41 109.999 104.187 108.192 104.101C106.012 103.997 103.823 104.138 101.641 104.093C96.3204 103.985 91.029 103.815 85.7054 103.866C83.8276 103.884 81.9462 103.701 80.0757 103.717C78.1065 103.735 76.137 103.82 74.1673 103.812C69.9507 103.794 65.6799 103.65 61.4982 103.572C57.8002 103.503 54.1006 103.505 50.4019 103.543C50.3583 103.536 50.318 103.524 50.2716 103.52C44.9644 103.073 39.616 103.916 34.2943 103.866C28.9707 103.815 23.6792 103.985 18.3589 104.093C16.1761 104.138 13.9883 103.997 11.8083 104.101C10.0013 104.187 8.15584 104.41 6.3481 104.229C4.69248 104.063 4.26615 103.214 4.13724 101.612C4.01349 100.074 4.20521 98.5368 4.20732 96.9993C4.21084 94.2953 3.81076 91.5939 3.74162 88.8899C3.70716 87.5373 3.87662 86.1048 3.72545 84.7478C5.72115 85.9722 8.36373 86.4984 10.4897 86.2384C12.8661 85.9478 14.419 84.4028 15.7222 82.6075C17.0462 84.5636 19.0648 85.949 21.5963 85.9487C23.0527 85.9487 24.3629 85.4233 25.5078 84.5488C26.3511 83.905 27.098 83.0573 27.999 82.4741C29.4544 84.7164 31.2017 86.7126 34.2008 86.5527C36.7283 86.4182 38.5388 84.7956 40.1094 82.9898C41.7481 85.221 45.1412 86.3955 47.6602 86.6106C50.7617 86.8757 53.1219 85.3211 54.7208 83.0151C54.9425 83.4998 55.2387 83.9425 55.5676 84.2926C56.724 85.5236 58.4131 86.2159 60.083 86.3193C62.3572 86.4602 64.5087 85.2986 65.634 83.4974C67.2195 85.5337 69.4594 86.8567 72.3392 86.6106C74.8583 86.3955 78.2511 85.2208 79.8901 82.9898C81.4604 84.7956 83.2709 86.4182 85.7984 86.5527C88.7977 86.7126 90.545 84.7164 92.0005 82.4741C92.9012 83.0573 93.6481 83.9048 94.4914 84.5488C95.6368 85.4233 96.9469 85.9487 98.4029 85.9487C100.935 85.9487 102.953 84.5636 104.277 82.6075C105.581 84.4028 107.134 85.9476 109.51 86.2384C111.635 86.4984 114.278 85.9722 116.274 84.7478C116.123 86.1048 116.293 87.5373 116.258 88.8899ZM116.609 80.5837C115.7 82.9316 112.366 83.8923 110.048 83.7154C107.658 83.533 106.429 81.2481 105.252 79.4516C104.622 78.4888 103.279 78.7089 102.897 79.7594C102.053 82.0799 99.5897 84.2767 96.9877 83.125C95.0614 82.2723 93.8921 80.3648 91.8704 79.5719C91.3412 79.3644 90.6936 79.7195 90.4205 80.162C89.2578 82.0459 88.0196 84.4035 85.4011 83.8942C83.2308 83.4719 81.7554 81.201 80.4589 79.6044C79.6543 78.6135 78.354 79.5585 78.2276 80.5286C77.9297 82.8189 74.0504 83.9411 72.1489 84.0773C69.3476 84.2776 67.4558 82.341 66.4597 79.8972C66.4271 79.8182 66.3889 79.7465 66.3474 79.679C66.327 79.573 66.3045 79.4666 66.2776 79.3595C65.9232 77.9535 64.0922 78.4307 63.9371 79.6764C63.9326 79.7125 63.9289 79.7483 63.9247 79.7844C63.8752 79.9213 63.8569 80.0744 63.8776 80.2412C63.7782 81.2955 63.6964 82.3103 62.7875 83.0603C62.011 83.7011 60.9568 83.8825 59.9771 83.7906C58.9672 83.6959 57.9943 83.3094 57.263 82.5981C56.5988 81.9522 56.3867 81.1708 56.0994 80.3669C56.4219 78.9904 54.1311 78.4478 53.54 79.8969C52.5439 82.3408 50.6518 84.2774 47.8505 84.077C45.9493 83.9408 42.0699 82.8189 41.7718 80.5284C41.6457 79.5583 40.3454 78.6135 39.5408 79.6042C38.2442 81.2008 36.7686 83.4716 34.5983 83.894C31.9801 84.4033 30.7419 82.0457 29.5791 80.1618C29.3063 79.7195 28.6585 79.3642 28.1293 79.5716C26.1076 80.3645 24.9383 82.2721 23.0117 83.1248C20.4097 84.2765 17.9461 82.0797 17.1024 79.7591C16.7204 78.7087 15.3783 78.4886 14.7474 79.4514C13.5704 81.2479 12.3411 83.5328 9.95138 83.7151C7.63318 83.8921 4.2999 82.9314 3.39029 80.5834C2.55943 78.4398 2.99795 75.5216 3.02232 73.2594C3.04998 70.7015 2.51888 67.9876 3.30756 65.4998C3.35209 65.3587 3.40506 65.223 3.4606 65.0891C17.2027 59.4569 31.8652 62.9092 46.1246 64.263C62.2613 65.7948 78.1472 61.6033 94.2467 61.536C98.0309 61.5201 101.79 61.9002 105.569 62.0008C105.725 62.005 105.881 62.0085 106.036 62.012C107.701 62.0488 109.374 62.0659 111.022 62.3294C111.842 62.4604 112.655 62.6528 113.431 62.9498C113.607 63.0175 113.783 63.1098 113.965 63.1501C114.171 63.1959 114.372 63.239 114.572 63.3114C114.964 63.4539 115.333 63.6601 115.66 63.9189C115.885 64.097 116.176 64.3293 116.317 64.5845C116.471 64.8646 116.595 65.1932 116.692 65.4993C117.48 67.9872 116.949 70.701 116.977 73.259C117.002 75.5219 117.44 78.4401 116.609 80.5837Z" fill="black"/>
</g>
<defs>
<clipPath id="clip0">
<rect width="120" height="120" fill="white"/>
</clipPath>
</defs>
</svg>
