<svg width="120" height="120" viewBox="0 0 120 120" fill="none" xmlns="http://www.w3.org/2000/svg">
<g clip-path="url(#clip0)">
<path d="M118.397 82.7875C119.866 80.6509 120.063 77.6952 119.986 75.1994C119.896 72.3173 120.139 69.3266 119.738 66.4726C119.326 63.538 117.796 61.4455 115.45 59.8895C115.459 59.8408 115.471 59.7941 115.475 59.7419C115.738 56.2602 115.677 52.7577 115.923 49.2707C116.153 46.0166 116.385 42.763 116.6 39.508C116.975 33.8348 117.483 28.1725 117.502 22.4901C117.508 20.9162 117.943 18.8158 116.809 17.5075C116.318 16.9408 115.482 16.7404 114.795 16.4812C114.887 16.4322 114.976 16.3827 115.058 16.3328C116.195 15.6386 117.011 14.4313 117.39 13.1704C118.064 10.93 117.508 8.23327 115.772 6.6121C113.903 4.86624 110.577 4.54608 108.624 6.33694C106.758 8.04764 106.526 11.0345 107.249 13.333C107.404 13.8271 107.631 14.3387 107.918 14.8237C107.086 14.691 106.262 14.6423 105.513 14.804C104.014 15.1276 103.384 16.4401 103.152 17.8408C102.709 20.5213 102.547 23.3038 102.426 26.0221C100.13 25.0912 97.6451 24.8671 95.1727 24.7213C92.3117 24.5528 89.4598 24.3271 86.6012 24.1326C83.7915 23.9413 80.9808 23.7683 78.1719 23.563C76.9559 23.4161 75.7306 23.3219 74.5051 23.2312C73.6407 23.1463 72.7714 23.0706 71.9068 23.0331C68.3 22.7577 64.6995 22.5688 61.0786 22.5351C57.2396 22.4994 53.4151 22.5315 49.5903 22.8817C47.7711 23.0481 45.9458 23.1585 44.1291 23.3493C43.9772 23.3652 43.8298 23.3887 43.6819 23.4114C43.2819 23.4498 42.8844 23.4857 42.4908 23.5152C39.4613 23.7426 36.4297 23.9258 33.3987 24.1323C30.5401 24.3269 27.6879 24.5526 24.8272 24.7211C22.3547 24.8669 19.8694 25.0912 17.574 26.0219C17.4526 23.3033 17.2908 20.5208 16.8474 17.8405C16.6158 16.4399 15.9851 15.1274 14.487 14.8037C13.7377 14.642 12.9134 14.6908 12.0821 14.8234C12.3687 14.3385 12.5954 13.8269 12.751 13.3328C13.4743 11.0343 13.242 8.04764 11.3759 6.33671C9.42263 4.54585 6.09685 4.866 4.22748 6.61186C2.4917 8.23304 1.93599 10.93 2.61006 13.1701C2.98927 14.4311 3.8056 15.6383 4.94209 16.3326C5.02342 16.3823 5.11248 16.4319 5.20482 16.4809C4.51763 16.7399 3.68185 16.9405 3.1906 17.5073C2.05646 18.8155 2.49216 20.916 2.49732 22.4898C2.51701 28.1723 3.02443 33.8345 3.39943 39.5078C3.61459 42.7628 3.84615 46.0166 4.07654 49.2705C4.32334 52.7575 4.26146 56.26 4.52513 59.7416C4.52935 59.7941 4.54084 59.8405 4.54974 59.8893C2.20341 61.4453 0.673649 63.5378 0.261852 66.4724C-0.138929 69.3264 0.104352 72.317 0.0143523 75.1991C-0.0632258 77.695 0.133884 80.6509 1.60295 82.7873C1.69084 84.9873 1.26287 87.22 1.27295 89.4297C1.28443 91.9544 1.6067 94.4774 1.57951 96.9988C1.54857 99.8423 0.623024 104.22 3.44115 106.122C4.83404 107.063 6.77748 107.042 8.39091 107.02C7.91138 109.142 7.45435 112.119 8.88451 113.594C10.6644 115.43 14.3173 114.768 16.5772 114.643C19.1684 114.5 22.4897 115.249 24.7944 113.727C26.6436 112.507 27.173 108.627 25.9276 106.645C27.6415 106.597 29.3558 106.565 31.0704 106.583C34.2233 106.616 37.3634 106.672 40.5111 106.452C42.0896 106.342 43.6686 106.215 45.2483 106.105C46.1483 106.133 47.0485 106.157 47.9508 106.169C52.6494 106.233 57.3486 106.214 62.0464 106.343C68.4893 106.52 75.0029 106.877 81.4646 106.555C83.9513 106.648 86.4361 106.609 88.929 106.583C90.6439 106.565 92.3583 106.597 94.0721 106.645C92.8266 108.627 93.3561 112.507 95.2051 113.727C97.5099 115.249 100.831 114.5 103.422 114.643C105.683 114.768 109.335 115.43 111.115 113.594C112.545 112.119 112.088 109.142 111.609 107.02C113.222 107.042 115.165 107.063 116.558 106.122C119.376 104.22 118.451 99.8423 118.42 96.9988C118.393 94.4774 118.715 91.9544 118.727 89.4297C118.737 87.2202 118.309 84.9876 118.397 82.7875ZM112.864 7.58194C114.814 8.10483 115.635 10.2691 115.275 12.1227C115.095 13.0499 114.646 13.8775 113.927 14.4932C113.406 14.9401 112.717 15.1159 112.084 15.3564C111.288 15.0414 110.619 14.7149 110.099 13.9473C109.506 13.0729 109.213 11.9962 109.19 10.9462C109.14 8.73624 110.477 6.9421 112.864 7.58194ZM104.546 26.4344C104.753 23.688 104.806 20.796 105.385 18.0972C105.7 16.626 106.628 17.0026 107.893 17.2682C110.036 17.7177 112.254 18.0226 114.303 18.8148C115.147 19.1408 115.168 18.9255 115.243 19.8948C115.306 20.7069 115.216 21.5263 115.198 22.3382C115.146 24.5863 115.146 26.7948 114.938 29.0404C114.464 34.1495 114.164 39.2744 113.781 44.3912C113.431 49.0771 112.852 53.856 113.057 58.5679C110.686 57.4288 108.122 56.6012 105.6 55.9724C105.539 55.9574 105.478 55.9445 105.418 55.9298C106.458 54.1544 107 51.8399 107.122 49.933C107.2 48.7028 106.961 47.4747 106.777 46.2637C106.624 45.2594 106.287 43.7744 107.016 42.939C107.595 42.276 108.526 41.935 109.15 41.2975C109.75 40.6839 110.223 39.9212 110.409 39.0789C110.766 37.472 109.911 35.9502 108.574 35.0854C107.219 34.2086 105.44 33.9241 103.865 34.3049C104.052 31.6862 104.348 29.0514 104.546 26.4344ZM30.1615 51.2329C30.2799 52.0937 30.3936 53.2126 30.7276 54.1654C28.9983 54.1682 27.2712 54.2113 25.5486 54.318C25.0857 53.2258 24.7379 52.244 24.5881 50.976C24.4196 49.5512 24.3434 48.0962 24.3054 46.6626C24.2262 43.6736 24.7442 40.7983 25.1586 37.8787C25.6503 37.7444 26.1418 37.6098 26.6361 37.4898C28.0416 37.1486 29.5039 37.0096 30.9631 36.9271C30.7006 38.0528 30.5811 39.2359 30.4358 40.3567C30.1913 42.2437 30.0125 44.1459 29.9447 46.0478C29.8833 47.7794 29.9253 49.5149 30.1615 51.2329ZM37.126 56.7543C39.9226 56.8209 42.7079 56.9352 45.4906 57.029C49.1731 57.3299 52.8615 57.5894 56.5566 57.6091C60.2579 57.629 63.9542 57.4063 67.6479 57.1787C72.7194 57.1558 77.7788 56.8757 82.8739 56.7543C89.255 56.6022 95.694 56.6732 101.973 57.9459C104.64 58.4866 107.292 59.2204 109.834 60.2097C109.473 60.1719 109.112 60.1403 108.751 60.1131C105.516 59.8684 102.25 59.7831 99.0099 59.6043C90.7076 59.1466 82.422 60.0883 74.1849 61.0194C65.9187 61.9539 57.6019 62.8888 49.2706 62.432C41.4331 62.0022 33.7055 60.4115 25.8676 59.9612C21.7962 59.7273 17.69 59.7712 13.6522 60.3916C10.5809 60.8636 7.74427 61.7167 5.02201 62.9772C6.21287 61.9234 7.77076 61.2001 9.18896 60.6034C12.0235 59.4112 15.0162 58.5562 18.027 57.9459C24.3059 56.6734 30.7451 56.6022 37.126 56.7543ZM53.7364 45.5786C53.75 47.2572 53.5545 48.9217 53.1636 50.5537C52.8162 52.004 51.9308 53.5591 51.8656 55.0445C48.852 54.9384 45.8412 54.7469 42.8253 54.6719C42.5274 54.6644 42.23 54.655 41.9321 54.6461C38.833 54.4077 35.7324 54.231 32.6382 54.1794C32.4258 53.0985 31.899 51.9728 31.7251 50.9127C31.4377 49.1589 31.3864 47.3657 31.4192 45.5919C31.4504 43.9173 31.5788 42.2488 31.7274 40.5812C31.8343 39.385 32.0225 38.1395 32.0258 36.9182C32.3061 36.9236 32.5878 36.9243 32.8737 36.9137C34.6676 36.8481 36.4665 36.7527 38.2613 36.828C39.9746 36.8999 41.6642 37.1744 43.3686 37.3403C45.1622 37.5149 46.8969 37.6532 48.6169 38.2194C49.1222 38.3856 49.8394 38.1168 50.0778 37.6248C50.7718 36.193 53.0862 34.4507 54.6861 34.2515C55.8727 34.1036 56.2805 35.0451 56.0574 36.0805C55.7907 37.3171 54.6814 37.9858 53.9239 38.9059C52.2804 40.903 53.7181 43.292 53.7364 45.5786ZM73.5125 54.2394C72.4951 54.283 71.4835 54.3402 70.4851 54.4042C69.6856 54.4553 68.8862 54.508 68.0869 54.5605C67.8842 53.2241 67.1464 51.8472 66.8365 50.5537C66.4454 48.9217 66.2501 47.2572 66.2637 45.5786C66.282 43.292 67.7199 40.903 66.076 38.9059C65.3185 37.9858 64.2092 37.3171 63.9425 36.0805C63.7191 35.0451 64.1272 34.1036 65.3138 34.2515C66.9134 34.4507 69.2281 36.193 69.9221 37.6248C70.1607 38.1168 70.8776 38.3856 71.3827 38.2194C72.1644 37.9621 72.9493 37.7957 73.7405 37.6717C73.4818 38.578 73.3191 39.5291 73.1562 40.4017C72.8518 42.0316 72.6741 43.6921 72.5979 45.348C72.4681 48.1691 72.5087 51.4956 73.5125 54.2394ZM79.6463 45.2015C79.6697 47.1306 79.7082 49.0609 79.8971 50.9814C79.9951 51.9758 79.9407 53.1932 80.1308 54.2664C78.5082 54.1595 76.8676 54.1459 75.2337 54.1834C74.9065 52.7472 74.4842 51.3686 74.3108 49.8883C74.1256 48.3074 74.079 46.7076 74.1272 45.1176C74.1758 43.5159 74.3363 41.9183 74.5794 40.3347C74.7247 39.3869 74.9867 38.4372 75.1744 37.4851C75.6565 37.4333 76.1412 37.3876 76.6311 37.3401C77.821 37.2241 79.0037 37.0567 80.1919 36.9409C80.014 37.7535 79.9365 38.6008 79.8495 39.3709C79.6318 41.3019 79.6229 43.2611 79.6463 45.2015ZM107.224 37.0279C109.323 38.2309 107.427 39.8915 106.147 40.7701C104.842 41.6673 104.172 42.7966 104.099 44.3854C104.004 46.4509 104.752 48.4787 104.374 50.5419C104.069 52.2039 103.206 53.7301 102.825 55.3579C95.9497 54.0177 88.9683 53.9795 81.9779 54.3819C81.7081 51.3177 81.2705 48.2826 81.1243 45.2015C81.0392 43.4057 81.0083 41.6087 81.0924 39.8125C81.1388 38.8267 81.3162 37.8341 81.4386 36.8446C81.5387 36.839 81.6385 36.8319 81.7383 36.8277C83.5332 36.7525 85.3322 36.8479 87.1259 36.9135C87.6052 36.9311 88.0749 36.9226 88.5404 36.9008C90.1634 36.9803 91.7989 37.1101 93.3638 37.4901C95.0445 37.8981 96.6962 38.4756 98.4277 38.6369C100.023 38.7855 101.38 38.3223 102.742 37.5301C104.165 36.7021 105.634 36.1169 107.224 37.0279ZM17.6236 27.4136C23.2351 27.4225 28.8666 27.0449 34.4621 26.6446C37.4054 26.4341 40.3571 26.2759 43.2936 25.982C45.0706 25.8041 46.9552 25.6733 48.7543 25.2974C49.2129 25.284 49.6714 25.2742 50.1308 25.2571C53.8789 25.1172 57.6043 25.1139 61.3547 25.1842C65.1092 25.2545 68.8416 25.4507 72.5818 25.7793C74.1643 25.9183 75.7505 25.9851 77.3372 26.0387C80.0656 26.2944 82.8055 26.4494 85.5378 26.6446C91.1335 27.0449 96.7648 27.4223 102.376 27.4136C102.322 29.8895 102.459 32.3108 102.584 34.7779C101.351 35.3774 100.24 36.2247 98.7952 36.1808C96.8551 36.1218 94.9937 35.3437 93.0891 35.0373C90.5949 34.6363 88.0079 34.626 85.4879 34.6101C82.9205 34.5937 80.3555 34.7198 77.7879 34.7001C75.6483 34.6837 73.5507 34.7385 71.4847 35.2567C70.197 33.5755 68.0129 32.2816 66.0936 31.9157C63.3575 31.3942 61.4762 33.554 61.9048 36.1923C62.1394 37.6375 62.9958 38.6387 63.9582 39.681C64.7126 40.4983 64.8481 40.877 64.5615 41.9821C64.3599 42.7612 64.1248 43.5137 64.0341 44.3167C63.8131 46.2707 63.9519 48.2699 64.2699 50.2047C64.4883 51.5348 64.7684 53.3537 65.465 54.7298C62.4983 54.9154 59.5304 55.0729 56.5566 55.1123C55.8132 55.1221 55.0704 55.1172 54.3279 55.1064C55.1792 53.7015 55.4909 51.6599 55.7297 50.2047C56.0473 48.2699 56.1863 46.2707 55.9655 44.3167C55.8748 43.5137 55.6397 42.7612 55.438 41.9821C55.1515 40.877 55.2868 40.4983 56.0412 39.681C57.0033 38.6385 57.86 37.6375 58.0948 36.1923C58.5235 33.554 56.6422 31.3942 53.9061 31.9157C51.9868 32.2816 49.8026 33.5755 48.515 35.2567C46.4492 34.7385 44.3513 34.6839 42.2115 34.7001C39.6444 34.7195 37.0791 34.5937 34.5118 34.6101C31.9915 34.626 29.4045 34.6363 26.9105 35.0373C25.0058 35.3437 23.1448 36.1218 21.2042 36.1808C19.7593 36.2247 18.6483 35.3772 17.4158 34.7779C17.5404 32.3108 17.678 29.8895 17.6236 27.4136ZM17.2583 37.5301C18.6202 38.3221 19.9768 38.7852 21.5719 38.6369C22.4965 38.5508 23.3979 38.3453 24.2933 38.1112C23.3319 41.1266 23.1197 44.5351 23.1783 47.5886C23.2119 49.3155 22.8894 52.4812 23.8121 54.4459C21.5909 54.6365 19.3772 54.9287 17.1748 55.3581C16.7937 53.7304 15.9308 52.2041 15.6261 50.5422C15.2476 48.479 15.9961 46.4512 15.9012 44.3856C15.8281 42.7968 15.1585 41.6676 13.8528 40.7704C12.5733 39.8915 10.677 38.2312 12.7763 37.0281C14.3658 36.1169 15.8347 36.7021 17.2583 37.5301ZM4.72529 12.1227C4.36529 10.2691 5.18584 8.10483 7.13607 7.58194C9.52295 6.9421 10.8598 8.73624 10.8104 10.9462C10.7869 11.9962 10.4944 13.0726 9.90146 13.9473C9.38091 14.7147 8.71271 15.0412 7.91607 15.3564C7.28256 15.1159 6.59373 14.9401 6.07248 14.4932C5.35459 13.8773 4.90552 13.0497 4.72529 12.1227ZM4.75763 19.8948C4.83263 18.9255 4.85326 19.1408 5.69677 18.8148C7.74638 18.0226 9.96474 17.7177 12.1074 17.2682C13.3723 17.0026 14.3002 16.626 14.6157 18.0972C15.1948 20.7962 15.2478 23.688 15.4547 26.4344C15.6521 29.0514 15.9479 31.6862 16.1358 34.3047C14.5597 33.9238 12.7817 34.2083 11.4263 35.0851C10.0892 35.95 9.2349 37.4718 9.59115 39.0787C9.77795 39.921 10.2507 40.6837 10.8509 41.2973C11.4744 41.935 12.406 42.2758 12.9847 42.9388C13.7133 43.7741 13.3765 45.2591 13.224 46.2634C13.04 47.4744 12.8 48.7028 12.8787 49.9328C13.0008 51.8397 13.5422 54.1541 14.5826 55.9295C14.5222 55.9443 14.4615 55.9572 14.4012 55.9722C11.8782 56.601 9.31412 57.4286 6.94365 58.5676C7.14826 53.8558 6.56982 49.0766 6.21896 44.391C5.83599 39.2741 5.5367 34.1495 5.06279 29.0401C4.8542 26.7946 4.85396 24.5861 4.80263 22.338C4.78412 21.5263 4.69435 20.7069 4.75763 19.8948ZM22.4272 111.861C20.3213 112.315 18.0537 111.952 15.9106 112.098C14.6675 112.183 11.1008 112.818 10.4923 111.424C9.93966 110.156 10.5826 108.379 10.3278 106.95C11.551 106.89 12.773 106.819 14 106.851C17.1397 106.933 20.2775 106.825 23.416 106.721C23.4059 106.796 23.401 106.874 23.4073 106.957C23.5348 108.606 24.8274 111.344 22.4272 111.861ZM109.508 111.424C108.899 112.818 105.332 112.183 104.089 112.098C101.946 111.952 99.6786 112.315 97.5725 111.861C95.1727 111.344 96.4648 108.606 96.5926 106.958C96.5989 106.875 96.594 106.797 96.5839 106.721C99.7224 106.825 102.86 106.933 106 106.852C107.227 106.82 108.449 106.891 109.672 106.951C109.418 108.379 110.06 110.156 109.508 111.424ZM116.258 88.8899C116.189 91.5939 115.789 94.2953 115.793 96.9993C115.794 98.537 115.986 100.074 115.863 101.612C115.734 103.214 115.308 104.062 113.651 104.229C111.844 104.41 109.999 104.187 108.192 104.101C106.012 103.997 103.823 104.138 101.641 104.093C96.3204 103.985 91.029 103.815 85.7054 103.866C83.8276 103.884 81.9462 103.701 80.0757 103.717C78.1065 103.735 76.137 103.82 74.1673 103.812C69.9507 103.794 65.6799 103.65 61.4982 103.572C57.8002 103.503 54.1006 103.505 50.4019 103.543C50.3583 103.536 50.318 103.524 50.2716 103.52C44.9644 103.073 39.616 103.916 34.2943 103.866C28.9707 103.815 23.6792 103.985 18.3589 104.093C16.1761 104.138 13.9883 103.997 11.8083 104.101C10.0013 104.187 8.15584 104.41 6.3481 104.229C4.69248 104.063 4.26615 103.214 4.13724 101.612C4.01349 100.074 4.20521 98.5368 4.20732 96.9993C4.21084 94.2953 3.81076 91.5939 3.74162 88.8899C3.70716 87.5373 3.87662 86.1048 3.72545 84.7478C5.72115 85.9722 8.36373 86.4984 10.4897 86.2384C12.8661 85.9478 14.419 84.4028 15.7222 82.6075C17.0462 84.5636 19.0648 85.949 21.5963 85.9487C23.0527 85.9487 24.3629 85.4233 25.5078 84.5488C26.3511 83.905 27.098 83.0573 27.999 82.4741C29.4544 84.7164 31.2017 86.7126 34.2008 86.5527C36.7283 86.4182 38.5388 84.7956 40.1094 82.9898C41.7481 85.221 45.1412 86.3955 47.6602 86.6106C50.7617 86.8757 53.1219 85.3211 54.7208 83.0151C54.9425 83.4998 55.2387 83.9425 55.5676 84.2926C56.724 85.5236 58.4131 86.2159 60.083 86.3193C62.3572 86.4602 64.5087 85.2986 65.634 83.4974C67.2195 85.5337 69.4594 86.8567 72.3392 86.6106C74.8583 86.3955 78.2511 85.2208 79.8901 82.9898C81.4604 84.7956 83.2709 86.4182 85.7984 86.5527C88.7977 86.7126 90.545 84.7164 92.0005 82.4741C92.9012 83.0573 93.6481 83.9048 94.4914 84.5488C95.6368 85.4233 96.9469 85.9487 98.4029 85.9487C100.935 85.9487 102.953 84.5636 104.277 82.6075C105.581 84.4028 107.134 85.9476 109.51 86.2384C111.635 86.4984 114.278 85.9722 116.274 84.7478C116.123 86.1048 116.293 87.5373 116.258 88.8899ZM116.609 80.5837C115.7 82.9316 112.366 83.8923 110.048 83.7154C107.658 83.533 106.429 81.2481 105.252 79.4516C104.622 78.4888 103.279 78.7089 102.897 79.7594C102.053 82.0799 99.5897 84.2767 96.9877 83.125C95.0614 82.2723 93.8921 80.3648 91.8704 79.5719C91.3412 79.3644 90.6936 79.7195 90.4205 80.162C89.2578 82.0459 88.0196 84.4035 85.4011 83.8942C83.2308 83.4719 81.7554 81.201 80.4589 79.6044C79.6543 78.6135 78.354 79.5585 78.2276 80.5286C77.9297 82.8189 74.0504 83.9411 72.1489 84.0773C69.3476 84.2776 67.4558 82.341 66.4597 79.8972C66.4271 79.8182 66.3889 79.7465 66.3474 79.679C66.327 79.573 66.3045 79.4666 66.2776 79.3595C65.9232 77.9535 64.0922 78.4307 63.9371 79.6764C63.9326 79.7125 63.9289 79.7483 63.9247 79.7844C63.8752 79.9213 63.8569 80.0744 63.8776 80.2412C63.7782 81.2955 63.6964 82.3103 62.7875 83.0603C62.011 83.7011 60.9568 83.8825 59.9771 83.7906C58.9672 83.6959 57.9943 83.3094 57.263 82.5981C56.5988 81.9522 56.3867 81.1708 56.0994 80.3669C56.4219 78.9904 54.1311 78.4478 53.54 79.8969C52.5439 82.3408 50.6518 84.2774 47.8505 84.077C45.9493 83.9408 42.0699 82.8189 41.7718 80.5284C41.6457 79.5583 40.3454 78.6135 39.5408 79.6042C38.2442 81.2008 36.7686 83.4716 34.5983 83.894C31.9801 84.4033 30.7419 82.0457 29.5791 80.1618C29.3063 79.7195 28.6585 79.3642 28.1293 79.5716C26.1076 80.3645 24.9383 82.2721 23.0117 83.1248C20.4097 84.2765 17.9461 82.0797 17.1024 79.7591C16.7204 78.7087 15.3783 78.4886 14.7474 79.4514C13.5704 81.2479 12.3411 83.5328 9.95138 83.7151C7.63318 83.8921 4.2999 82.9314 3.39029 80.5834C2.55943 78.4398 2.99795 75.5216 3.02232 73.2594C3.04998 70.7015 2.51888 67.9876 3.30756 65.4998C3.35209 65.3587 3.40506 65.223 3.4606 65.0891C17.2027 59.4569 31.8652 62.9092 46.1246 64.263C62.2613 65.7948 78.1472 61.6033 94.2467 61.536C98.0309 61.5201 101.79 61.9002 105.569 62.0008C105.725 62.005 105.881 62.0085 106.036 62.012C107.701 62.0488 109.374 62.0659 111.022 62.3294C111.842 62.4604 112.655 62.6528 113.431 62.9498C113.607 63.0175 113.783 63.1098 113.965 63.1501C114.171 63.1959 114.372 63.239 114.572 63.3114C114.964 63.4539 115.333 63.6601 115.66 63.9189C115.885 64.097 116.176 64.3293 116.317 64.5845C116.471 64.8646 116.595 65.1932 116.692 65.4993C117.48 67.9872 116.949 70.701 116.977 73.259C117.002 75.5219 117.44 78.4401 116.609 80.5837Z" fill="#262626"/>
</g>
<defs>
<clipPath id="clip0">
<rect width="120" height="120" fill="white"/>
</clipPath>
</defs>
</svg>
