<svg width="15" height="15" viewBox="0 0 15 15" fill="none" xmlns="http://www.w3.org/2000/svg">
<path d="M13.449 2.22715L11.577 0.356836C11.3484 0.12832 11.0426 0 10.7191 0C10.3957 0 10.0898 0.126563 9.86133 0.356836L7.84512 2.36953C7.6166 2.59805 7.48828 2.90566 7.48828 3.2291C7.48828 3.5543 7.61484 3.8584 7.84512 4.08867L9.42012 5.66543C9.06132 6.50142 8.54579 7.26099 7.90137 7.90312C7.25625 8.55176 6.50215 9.06328 5.66543 9.42539L4.09043 7.84863C3.86191 7.62012 3.55605 7.4918 3.23262 7.4918C3.07308 7.49121 2.91504 7.52246 2.76774 7.58374C2.62044 7.64501 2.48685 7.73507 2.3748 7.84863L0.356836 9.86133C0.12832 10.0898 0 10.3975 0 10.7209C0 11.0461 0.126563 11.3502 0.356836 11.5805L2.22715 13.4508C2.61738 13.841 3.15527 14.0643 3.70723 14.0643C3.82148 14.0643 3.93223 14.0555 4.04473 14.0361C6.37207 13.6529 8.68184 12.4137 10.5469 10.5504C12.4102 8.68359 13.6477 6.37383 14.0344 4.04473C14.1451 3.38379 13.9236 2.70352 13.449 2.22715ZM12.7881 3.83555C12.4453 5.90801 11.3309 7.9752 9.65215 9.65391C7.97344 11.3326 5.90801 12.4471 3.83555 12.7898C3.57539 12.8338 3.3082 12.7459 3.11836 12.5578L1.28145 10.7209L3.2291 8.77148L5.33496 10.8809L5.35078 10.8967L5.73047 10.7561C6.88171 10.3328 7.92714 9.66424 8.79432 8.79676C9.6615 7.92928 10.3297 6.88362 10.7525 5.73223L10.8932 5.35254L8.76973 3.23086L10.7174 1.28145L12.5543 3.11836C12.7441 3.3082 12.832 3.57539 12.7881 3.83555Z" fill="#E8E8E8"/>
</svg>
