<svg width="160" height="42" viewBox="0 0 160 42" fill="none" xmlns="http://www.w3.org/2000/svg">
<path d="M54.8203 26.4648C55.0195 29.3828 57.4805 31.2812 61.1719 31.2812C64.957 31.2812 67.418 29.3242 67.418 26.1953C67.418 23.8047 66.0234 22.3984 62.4961 21.625L60.6211 21.2148C58.3125 20.7109 57.4102 19.7969 57.4102 18.4609C57.4102 16.7383 59.0391 15.707 61.1484 15.707C63.3516 15.707 64.8164 16.8438 65.0039 18.6953H67.1133C67.0195 15.8242 64.582 13.8086 61.207 13.8086C57.7031 13.8086 55.2422 15.7656 55.2422 18.5547C55.2422 20.957 56.707 22.4922 60.0938 23.2305L61.9688 23.6406C64.3125 24.1562 65.25 25.0938 65.25 26.5117C65.25 28.1758 63.5859 29.3828 61.2891 29.3828C58.8633 29.3828 57.1758 28.2812 56.9297 26.4648H54.8203ZM75.4922 18.6016C73.7227 18.6016 72.3047 19.5039 71.5547 20.875H71.5078V18.8125H69.5742V35.0664H71.6133V29.0195H71.6602C72.3867 30.3555 73.793 31.2109 75.5391 31.2109C78.6094 31.2109 80.707 28.7266 80.707 24.9062C80.707 21.0859 78.5977 18.6016 75.4922 18.6016ZM75.0938 29.418C73.0078 29.418 71.6016 27.625 71.6016 24.9062C71.6016 22.1992 73.0078 20.3945 75.0938 20.3945C77.2617 20.3945 78.6211 22.1523 78.6211 24.9062C78.6211 27.6719 77.2617 29.418 75.0938 29.418ZM83.8945 16.6445C84.6094 16.6445 85.1719 16.0703 85.1719 15.3672C85.1719 14.6523 84.6094 14.0898 83.8945 14.0898C83.1914 14.0898 82.6172 14.6523 82.6172 15.3672C82.6172 16.0703 83.1914 16.6445 83.8945 16.6445ZM82.875 31H84.9141V18.8125H82.875V31ZM87.7734 31H89.8125V14.0898H87.7734V31ZM100.652 27.5078C100.312 28.6562 99.1758 29.4414 97.6289 29.4414C95.4375 29.4414 94.0664 27.9062 94.0664 25.5742V25.457H102.809V24.6836C102.809 20.9922 100.781 18.6016 97.4883 18.6016C94.125 18.6016 91.9688 21.168 91.9688 24.9531C91.9688 28.7852 94.0898 31.2109 97.582 31.2109C100.242 31.2109 102.305 29.6406 102.656 27.5078H100.652ZM97.4531 20.3711C99.375 20.3711 100.652 21.8242 100.699 23.8633H94.0781C94.207 21.8359 95.543 20.3711 97.4531 20.3711ZM110.789 18.6016C109.02 18.6016 107.602 19.5039 106.852 20.875H106.805V18.8125H104.871V35.0664H106.91V29.0195H106.957C107.684 30.3555 109.09 31.2109 110.836 31.2109C113.906 31.2109 116.004 28.7266 116.004 24.9062C116.004 21.0859 113.895 18.6016 110.789 18.6016ZM110.391 29.418C108.305 29.418 106.898 27.625 106.898 24.9062C106.898 22.1992 108.305 20.3945 110.391 20.3945C112.559 20.3945 113.918 22.1523 113.918 24.9062C113.918 27.6719 112.559 29.418 110.391 29.418ZM126.152 27.5078C125.812 28.6562 124.676 29.4414 123.129 29.4414C120.938 29.4414 119.566 27.9062 119.566 25.5742V25.457H128.309V24.6836C128.309 20.9922 126.281 18.6016 122.988 18.6016C119.625 18.6016 117.469 21.168 117.469 24.9531C117.469 28.7852 119.59 31.2109 123.082 31.2109C125.742 31.2109 127.805 29.6406 128.156 27.5078H126.152ZM122.953 20.3711C124.875 20.3711 126.152 21.8242 126.199 23.8633H119.578C119.707 21.8359 121.043 20.3711 122.953 20.3711ZM132.094 31.1172C132.844 31.1172 133.43 30.5312 133.43 29.7812C133.43 29.0312 132.844 28.4453 132.094 28.4453C131.344 28.4453 130.758 29.0312 130.758 29.7812C130.758 30.5312 131.344 31.1172 132.094 31.1172ZM143.848 27.5078C143.508 28.6562 142.371 29.4414 140.824 29.4414C138.633 29.4414 137.262 27.9062 137.262 25.5742V25.457H146.004V24.6836C146.004 20.9922 143.977 18.6016 140.684 18.6016C137.32 18.6016 135.164 21.168 135.164 24.9531C135.164 28.7852 137.285 31.2109 140.777 31.2109C143.438 31.2109 145.5 29.6406 145.852 27.5078H143.848ZM140.648 20.3711C142.57 20.3711 143.848 21.8242 143.895 23.8633H137.273C137.402 21.8359 138.738 20.3711 140.648 20.3711ZM158.074 18.8125H156.035V25.9727C156.035 28.0469 154.84 29.4062 152.859 29.4062C150.973 29.4062 150.047 28.3398 150.047 26.3594V18.8125H148.008V26.7227C148.008 29.4883 149.566 31.2109 152.227 31.2109C154.102 31.2109 155.367 30.4258 156.094 29.0195H156.141V31H158.074V18.8125Z" fill="white"/>
<g clip-path="url(#clip0)">
<path d="M41.3683 30.7047C41.677 29.0694 41.8888 27.3784 41.9984 25.6786C42.0006 25.6435 42.0006 25.6083 41.9984 25.5732C41.8888 23.872 41.6768 22.1802 41.3687 20.5465C41.1706 19.4823 40.5896 18.2319 41.1158 17.1973C41.7556 15.8881 41.5446 14.4045 40.5653 13.3254C39.5884 12.2492 38.1368 11.8967 36.774 12.4063C36.3138 12.5806 35.7906 12.551 35.3466 12.3423C33.7678 11.606 30.4001 10.3735 25.1253 10.0816C25.1404 9.90552 25.1502 9.72891 25.1502 9.55164C25.1502 7.1441 23.7996 4.90334 21.3471 3.24204C18.9924 1.64703 15.8772 0.768635 12.5751 0.768635C9.27289 0.768635 6.15768 1.64703 3.80313 3.24196C1.35064 4.90334 0 7.1441 0 9.55164C0 11.9592 1.35064 14.2 3.80313 15.8613C3.90945 15.9333 4.01773 16.0033 4.12707 16.0724C4.18023 16.5017 4.32001 16.9089 4.51131 17.2954C4.70129 17.6822 4.74871 18.1256 4.64494 18.5431C4.48358 19.1899 4.33658 19.8632 4.20812 20.5445C3.83365 22.5302 3.47484 24.6233 3.65146 26.6442C3.82971 28.684 4.14799 30.7177 4.64469 32.705C4.74871 33.1239 4.70129 33.5677 4.51131 33.9545C4.50975 33.9576 4.50827 33.9607 4.5068 33.9638L4.46119 34.0598C3.82225 35.3697 4.03372 36.8533 5.01309 37.9315C5.98738 39.0041 7.43449 39.3568 8.7917 38.8525L8.79925 38.8498C8.80441 38.848 8.80958 38.8461 8.81475 38.8442C9.27782 38.67 9.78469 38.6922 10.2435 38.9075C12.1028 39.7754 16.2057 41.2314 22.7944 41.2314C29.3783 41.2314 33.4847 39.7755 35.3491 38.9066C35.7923 38.6982 36.3182 38.671 36.7773 38.8448C38.1371 39.3533 39.5886 39.0005 40.5654 37.9246C41.5446 36.8455 41.7557 35.3619 41.1159 34.0527C40.5393 33.0919 41.182 31.7065 41.3683 30.7047ZM1.64062 9.55164C1.64062 7.70528 2.73541 5.94694 4.72328 4.60031C6.80909 3.18733 9.59757 2.40926 12.5751 2.40926C15.2861 2.40926 18.0923 3.04164 20.3687 4.56143C22.3799 5.90428 23.9891 8.14431 23.3741 10.6659C23.0856 11.8493 22.3259 12.981 21.1767 13.9387C20.8062 14.2475 20.7863 14.8286 21.1353 15.162C21.5344 15.5436 21.9669 15.887 21.968 16.4969C21.9687 16.8964 21.762 17.2563 21.4886 17.5347C20.7404 18.2967 19.5471 18.5717 18.5144 18.5717C17.2376 18.5717 16.0666 18.1263 15.4672 17.449C15.3563 17.3236 15.2649 17.1902 15.1962 17.0502C15.0336 16.7191 14.6838 16.5626 14.328 16.6006C12.0378 16.8445 9.67189 16.6217 7.49142 15.8662C5.57017 15.2006 3.65457 14.0719 2.51688 12.34C1.97277 11.5116 1.64062 10.548 1.64062 9.55164ZM39.5949 34.6776L39.6424 34.7744C40.0461 35.6019 39.7564 36.3746 39.3504 36.8219C38.9462 37.2671 38.2091 37.6288 37.355 37.3093C36.485 36.9798 35.4941 37.0255 34.6534 37.4207C32.9146 38.2312 29.0619 39.5907 22.7944 39.5907C16.5223 39.5907 12.6734 38.2312 10.9389 37.4216C10.4693 37.2013 9.95827 37.0902 9.44828 37.0902C9.03919 37.0902 8.63075 37.1617 8.24521 37.3056L8.23848 37.308C8.2338 37.3096 8.22921 37.3113 8.22462 37.3131C7.36755 37.6334 6.63108 37.2729 6.22748 36.8285C5.82127 36.3813 5.53137 35.6082 5.93923 34.7719L5.98623 34.673C6.34446 33.9408 6.43355 33.1017 6.23667 32.3085C5.76967 30.4402 5.46845 28.5287 5.29561 26.6114C5.12351 24.7024 5.4664 22.7252 5.82028 20.8486C5.94292 20.1985 6.08303 19.5564 6.23692 18.9396C6.38515 18.3433 6.37104 17.7202 6.20189 17.1358C8.66242 18.1424 11.3889 18.4885 14.0315 18.2765C14.099 18.3675 14.1722 18.4556 14.2496 18.5414C15.1723 19.5657 16.7694 20.2125 18.5145 20.2125C20.0301 20.2125 21.6715 19.7465 22.7313 18.6084C23.7902 17.4713 23.8943 15.811 22.8981 14.5863C23.7122 13.7694 24.3827 12.7953 24.7725 11.7055C29.9246 11.9547 33.1571 13.1316 34.6509 13.828C35.4913 14.2231 36.4813 14.2714 37.3518 13.9418C38.2091 13.6214 38.9463 13.9828 39.3504 14.4279C39.7565 14.8755 40.0464 15.6487 39.6424 16.4754C38.9096 17.9404 39.4766 19.3464 39.7561 20.8485C40.049 22.4018 40.2514 24.0088 40.3577 25.6258C40.2515 27.2414 40.0492 28.8475 39.7558 30.4026C39.4884 31.8408 38.9018 33.2664 39.5949 34.6776Z" fill="#FF85C0"/>
<path d="M29.544 33.9577C24.3193 35.3735 18.386 34.9444 13.2649 32.7803C12.8477 32.6041 12.3664 32.7993 12.19 33.2167C12.0137 33.634 12.209 34.1152 12.6263 34.2916C15.3362 35.4367 18.2174 36.1298 21.1897 36.3514C21.8722 36.4024 22.5517 36.4277 23.2271 36.4277C25.5352 36.4277 27.7965 36.1311 29.973 35.5412C30.4103 35.4227 30.6687 34.9721 30.5502 34.5348C30.4318 34.0977 29.9811 33.8393 29.544 33.9577Z" fill="#FF85C0"/>
<path d="M33.5238 32.7321C32.903 32.3252 32.0777 32.9141 32.278 33.6331C32.3719 33.97 32.6776 34.2164 33.0276 34.2332C33.378 34.25 33.7064 34.036 33.8329 33.7093C33.9707 33.3533 33.8366 32.9463 33.5238 32.7321Z" fill="#FF85C0"/>
<path d="M25.3426 24.406C26.9034 24.406 28.1733 23.3266 28.1733 21.9997C28.1733 20.6729 26.9035 19.5934 25.3426 19.5934C23.7817 19.5934 22.512 20.6729 22.512 21.9997C22.512 23.3266 23.7818 24.406 25.3426 24.406ZM25.3426 21.234C26.0439 21.234 26.5326 21.6376 26.5326 21.9997C26.5326 22.3619 26.0439 22.7654 25.3426 22.7654C24.6413 22.7654 24.1526 22.3619 24.1526 21.9997C24.1526 21.6376 24.6414 21.234 25.3426 21.234Z" fill="#FF85C0"/>
<path d="M6.23194 11.8579C6.35384 12.0829 6.5891 12.223 6.84496 12.223H9.66913C10.0542 12.223 10.3664 11.9108 10.3664 11.5257C10.3664 11.1407 10.0542 10.8285 9.66913 10.8285H8.13154L10.1876 7.67288C10.3273 7.45853 10.3383 7.18495 10.2164 6.96002C10.0945 6.7351 9.85928 6.59499 9.60342 6.59499H6.93175C6.54669 6.59499 6.23448 6.9072 6.23448 7.29225C6.23448 7.67731 6.54669 7.98952 6.93175 7.98952H8.31685L6.26081 11.1451C6.12111 11.3594 6.11004 11.633 6.23194 11.8579Z" fill="#FF85C0"/>
<path d="M11.5195 11.8579C11.6414 12.0829 11.8767 12.223 12.1325 12.223H14.0929C14.478 12.223 14.7902 11.9108 14.7902 11.5257C14.7902 11.1407 14.478 10.8285 14.0929 10.8285H13.4191L14.6315 8.96774C14.7712 8.75339 14.7822 8.47982 14.6603 8.25489C14.5384 8.02996 14.3032 7.88985 14.0473 7.88985H12.1929C11.8079 7.88985 11.4957 8.20206 11.4957 8.58712C11.4957 8.97217 11.8079 9.28438 12.1929 9.28438H12.7608L11.5485 11.1451C11.4087 11.3594 11.3976 11.633 11.5195 11.8579Z" fill="#FF85C0"/>
<path d="M15.9183 11.8579C16.0402 12.0829 16.2755 12.223 16.5314 12.223H18.4917C18.8768 12.223 19.189 11.9108 19.189 11.5257C19.189 11.1407 18.8768 10.8285 18.4917 10.8285H17.8179L19.0304 8.96774C19.1701 8.75339 19.1811 8.47982 19.0592 8.25489C18.9373 8.02996 18.7021 7.88985 18.4462 7.88985H16.5917C16.2067 7.88985 15.8945 8.20206 15.8945 8.58712C15.8945 8.97217 16.2067 9.28438 16.5917 9.28438H17.1596L15.9472 11.1451C15.8075 11.3594 15.7964 11.633 15.9183 11.8579Z" fill="#FF85C0"/>
</g>
<defs>
<clipPath id="clip0">
<rect width="42" height="42" fill="white"/>
</clipPath>
</defs>
</svg>
