<svg width="196" height="56" viewBox="0 0 196 56" fill="none" xmlns="http://www.w3.org/2000/svg">
<path d="M28.7218 50.764C31.6682 50.764 34.0654 48.5167 34.0654 45.7542C34.0654 42.992 31.6682 40.7448 28.7218 40.7448C25.7754 40.7448 23.3782 42.992 23.3782 45.7542C23.3782 48.5167 25.7754 50.764 28.7218 50.764Z" fill="#FEA800"/>
<path d="M38.073 54.7718C39.9147 54.7718 41.4128 53.2737 41.4128 51.432C41.4128 49.5904 39.9147 48.0923 38.073 48.0923C36.2318 48.0923 34.7333 49.5904 34.7333 51.432C34.7333 53.2737 36.2318 54.7718 38.073 54.7718ZM38.073 51.432C38.0748 51.432 38.0752 51.432 38.0752 51.432H38.073Z" fill="#FEA800"/>
<path d="M52.0497 17.3084C50.6026 15.7372 48.7251 14.667 46.6671 14.2207C45.9964 10.4766 44.1026 7.05123 41.2539 4.47085C38.0714 1.58793 33.9515 0 29.6541 0C22.7383 0 16.5374 4.11273 13.8091 10.3679C13.2629 10.2935 12.7105 10.2563 12.1564 10.2563C5.45327 10.2563 0 15.7096 0 22.4127C0 29.1159 5.45327 34.5696 12.1564 34.5696H16.7576C18.229 37.1349 20.9556 38.7412 23.9739 38.7412C26.9918 38.7412 29.7189 37.1349 31.1902 34.5696H44.477C50.1521 34.5696 54.7692 29.952 54.7692 24.2769C54.7692 21.6869 53.8035 19.2122 52.0497 17.3084ZM16.0681 27.2066H10.5739C9.92329 27.2066 9.70098 26.7102 9.70098 26.2823C9.70098 25.8544 9.94042 25.4779 10.1631 25.1866L13.1927 21.1988H10.5739C10.1631 21.1988 9.82091 20.7195 9.82091 20.1203C9.82091 19.5553 10.1117 19.0589 10.5739 19.0589H15.6916C16.1195 19.0589 16.5132 19.333 16.5132 19.9318C16.5132 20.3083 16.359 20.7191 16.0853 21.0789L13.0385 25.0667H16.0681C16.4789 25.0667 16.8212 25.546 16.8212 26.1452C16.8212 26.7102 16.5303 27.2066 16.0681 27.2066ZM26.7875 21.002H20.9498C20.259 21.002 20.0225 20.4746 20.0225 20.02C20.0225 19.5653 20.277 19.1654 20.5135 18.8562L23.7324 14.619H20.9498C20.5135 14.619 20.1499 14.1096 20.1499 13.4731C20.1499 12.8731 20.4588 12.3457 20.9498 12.3457H26.3872C26.8418 12.3457 27.2601 12.637 27.2601 13.2734C27.2601 13.6733 27.0967 14.1096 26.8054 14.4919L23.5686 18.7288H26.7875C27.2237 18.7288 27.5877 19.2381 27.5877 19.8746C27.5877 20.4746 27.2785 21.002 26.7875 21.002ZM39.656 27.3846H31.909C31.3269 27.3846 31.0903 27.0754 31.0903 26.6387C31.0903 26.3479 31.1994 25.9843 31.3996 25.6387L36.5277 16.5642H32.3089C31.7635 16.5642 31.4543 15.9821 31.4543 15.3272C31.4543 14.7272 31.7088 14.0908 32.3089 14.0908H39.3283C39.8741 14.0908 40.147 14.4 40.147 14.8362C40.147 15.1275 40.0379 15.4727 39.8377 15.8366L34.7096 24.9112H39.656C40.2013 24.9112 40.5105 25.5656 40.5105 26.1477C40.5105 26.7298 40.2013 27.3846 39.656 27.3846Z" fill="#FEA800"/>
<path d="M65.6679 6.3403H72.5144C74.4563 6.3403 76.1244 6.68884 77.5186 7.38594C78.9127 8.08303 79.975 9.09548 80.7053 10.4233C81.4522 11.7511 81.8256 13.3361 81.8256 15.1785C81.8256 17.0374 81.4605 18.6307 80.7302 19.9585C79.9999 21.2863 78.9376 22.3071 77.5435 23.0208C76.1493 23.7179 74.4729 24.0664 72.5144 24.0664H65.6679V6.3403ZM72.2654 20.9295C76.0497 20.9295 77.9418 19.0125 77.9418 15.1785C77.9418 11.3776 76.0497 9.47722 72.2654 9.47722H69.5518V20.9295H72.2654Z" fill="#3D99FF"/>
<path d="M95.9538 18.0664H87.6385C87.7049 19.2449 88.0119 20.1079 88.5597 20.6556C89.1074 21.1868 89.9206 21.4523 90.9995 21.4523C91.6468 21.4523 92.2941 21.3444 92.9414 21.1287C93.5887 20.9129 94.1862 20.5976 94.7339 20.1826L95.7298 22.722C95.1323 23.2034 94.3854 23.5851 93.4891 23.8673C92.6094 24.1328 91.7215 24.2656 90.8252 24.2656C88.7007 24.2656 87.0327 23.6847 85.8211 22.5229C84.6094 21.3444 84.0036 19.7428 84.0036 17.7179C84.0036 16.4399 84.2609 15.3029 84.7754 14.3071C85.3065 13.2947 86.0451 12.5146 86.9912 11.9668C87.9372 11.4025 89.0078 11.1204 90.2028 11.1204C91.9787 11.1204 93.3812 11.7013 94.4103 12.8631C95.4393 14.0083 95.9538 15.5602 95.9538 17.5187V18.0664ZM90.3024 13.7594C89.5887 13.7594 89.0078 13.9668 88.5597 14.3818C88.1281 14.7967 87.846 15.4025 87.7132 16.1992H92.7173C92.5182 14.5727 91.7132 13.7594 90.3024 13.7594ZM94.5845 4.69714L91.3231 9.82577H89.0576L85.7962 4.69714H88.7339L90.2028 7.6349L91.6468 4.69714H94.5845Z" fill="#3D99FF"/>
<path d="M102.801 14.2573V19.1619C102.801 19.859 102.984 20.3735 103.349 20.7054C103.714 21.0208 104.187 21.1785 104.768 21.1785C105.133 21.1785 105.548 21.1204 106.013 21.0042V23.9171C105.415 24.1494 104.693 24.2656 103.847 24.2656C102.287 24.2656 101.092 23.8258 100.262 22.9461C99.4486 22.0664 99.0419 20.8299 99.0419 19.2366V14.2573H96.6519V11.444H99.0419V8.48137L102.801 7.26146V11.444H106.013V14.2573H102.801Z" fill="#3D99FF"/>
<path d="M112.772 24.2656C110.382 24.2656 108.498 23.7511 107.12 22.722L108.116 20.1079C108.78 20.5893 109.519 20.9627 110.332 21.2283C111.145 21.4772 111.975 21.6017 112.822 21.6017C113.469 21.6017 113.967 21.5021 114.315 21.3029C114.664 21.1038 114.838 20.8133 114.838 20.4316C114.838 20.1162 114.714 19.8673 114.465 19.6847C114.216 19.5021 113.776 19.3444 113.145 19.2117L111.079 18.7386C109.867 18.4731 108.971 18.0498 108.39 17.4689C107.826 16.888 107.544 16.1162 107.544 15.1536C107.544 14.3735 107.768 13.6764 108.216 13.0623C108.681 12.4482 109.32 11.9751 110.133 11.6432C110.946 11.2947 111.884 11.1204 112.946 11.1204C113.842 11.1204 114.722 11.2615 115.585 11.5436C116.448 11.8092 117.22 12.1909 117.9 12.6888L116.855 15.2034C116.208 14.7552 115.544 14.415 114.863 14.1826C114.199 13.9503 113.552 13.8341 112.921 13.8341C112.307 13.8341 111.826 13.942 111.477 14.1577C111.129 14.3735 110.954 14.6722 110.954 15.054C110.954 15.3361 111.054 15.5685 111.253 15.7511C111.469 15.9171 111.842 16.0581 112.374 16.1743L114.49 16.6473C115.784 16.9461 116.722 17.3942 117.303 17.9917C117.884 18.5893 118.174 19.3859 118.174 20.3818C118.174 21.5768 117.693 22.5229 116.73 23.22C115.768 23.9171 114.448 24.2656 112.772 24.2656Z" fill="#3D99FF"/>
<path d="M129.177 24.0664L124.222 18.415V24.0664H120.463V5.74279H124.222V16.8714L128.953 11.4689H133.459L128.106 17.5187L133.783 24.0664H129.177Z" fill="#3D99FF"/>
<path d="M146.94 11.444L141.114 24.7386C140.4 26.3486 139.496 27.527 138.4 28.2739C137.321 29.0374 135.994 29.527 134.417 29.7428L133.545 26.8548C134.707 26.6058 135.579 26.2905 136.16 25.9088C136.757 25.527 137.222 24.971 137.554 24.2407L137.927 23.4191L132.724 11.444H136.657L139.894 19.6349L143.23 11.444H146.94ZM138.649 9.82577L141.114 4.69714H144.799L140.965 9.82577H138.649Z" fill="#3D99FF"/>
<path d="M76.7468 44.6224H68.4314C68.4978 45.8009 68.8049 46.6639 69.3526 47.2116C69.9003 47.7428 70.7136 48.0083 71.7924 48.0083C72.4397 48.0083 73.087 47.9004 73.7343 47.6847C74.3816 47.4689 74.9791 47.1536 75.5269 46.7386L76.5227 49.278C75.9252 49.7594 75.1783 50.1411 74.282 50.4233C73.4024 50.6888 72.5144 50.8216 71.6181 50.8216C69.4937 50.8216 67.8256 50.2407 66.614 49.0789C65.4024 47.9004 64.7966 46.2988 64.7966 44.2739C64.7966 42.9959 65.0538 41.8589 65.5684 40.8631C66.0995 39.8507 66.8381 39.0706 67.7841 38.5229C68.7302 37.9585 69.8007 37.6764 70.9957 37.6764C72.7717 37.6764 74.1742 38.2573 75.2032 39.4191C76.2322 40.5643 76.7468 42.1162 76.7468 44.0747V44.6224ZM71.0953 40.3154C70.3816 40.3154 69.8007 40.5228 69.3526 40.9378C68.921 41.3527 68.6389 41.9585 68.5061 42.7552H73.5103C73.3111 41.1287 72.5061 40.3154 71.0953 40.3154Z" fill="#3D99FF"/>
<path d="M83.9369 50.8216C81.5469 50.8216 79.6631 50.3071 78.2855 49.278L79.2813 46.6639C79.9452 47.1453 80.6838 47.5187 81.4971 47.7843C82.3104 48.0332 83.1402 48.1577 83.9867 48.1577C84.634 48.1577 85.1319 48.0581 85.4805 47.8589C85.829 47.6598 86.0033 47.3693 86.0033 46.9876C86.0033 46.6722 85.8788 46.4233 85.6299 46.2407C85.3809 46.0581 84.9411 45.9004 84.3104 45.7677L82.244 45.2946C81.0324 45.0291 80.1361 44.6058 79.5552 44.0249C78.9909 43.444 78.7087 42.6722 78.7087 41.7096C78.7087 40.9295 78.9328 40.2324 79.3809 39.6183C79.8456 39.0042 80.4846 38.5311 81.2979 38.1992C82.1112 37.8507 83.049 37.6764 84.1112 37.6764C85.0075 37.6764 85.8871 37.8175 86.7502 38.0996C87.6133 38.3652 88.3851 38.7469 89.0656 39.2448L88.0199 41.7594C87.3726 41.3112 86.7087 40.971 86.0282 40.7386C85.3643 40.5063 84.717 40.3901 84.0863 40.3901C83.4722 40.3901 82.9909 40.498 82.6423 40.7137C82.2938 40.9295 82.1195 41.2282 82.1195 41.61C82.1195 41.8921 82.2191 42.1245 82.4183 42.3071C82.634 42.4731 83.0075 42.6141 83.5386 42.7303L85.6548 43.2033C86.9494 43.5021 87.8871 43.9502 88.468 44.5477C89.049 45.1453 89.3394 45.9419 89.3394 46.9378C89.3394 48.1328 88.8581 49.0789 87.8954 49.776C86.9328 50.4731 85.6133 50.8216 83.9369 50.8216Z" fill="#3D99FF"/>
<path d="M99.4206 37.6764C102.408 37.6764 103.902 39.444 103.902 42.9793V50.6224H100.143V43.1536C100.143 42.2739 99.9767 41.6349 99.6447 41.2365C99.3294 40.8216 98.8231 40.6141 98.126 40.6141C97.2962 40.6141 96.6323 40.8797 96.1343 41.4108C95.6364 41.9419 95.3874 42.6556 95.3874 43.5519V50.6224H91.6281V32.2988H95.3874V39.7179C95.8356 39.054 96.4082 38.5477 97.1053 38.1992C97.8024 37.8507 98.5742 37.6764 99.4206 37.6764Z" fill="#3D99FF"/>
<path d="M112.921 50.8216C111.577 50.8216 110.399 50.556 109.386 50.0249C108.39 49.4938 107.619 48.7303 107.071 47.7345C106.54 46.7386 106.274 45.5768 106.274 44.249C106.274 42.9212 106.54 41.7594 107.071 40.7635C107.619 39.7677 108.39 39.0042 109.386 38.4731C110.399 37.9419 111.577 37.6764 112.921 37.6764C114.249 37.6764 115.411 37.9419 116.407 38.4731C117.403 39.0042 118.166 39.7677 118.697 40.7635C119.245 41.7594 119.519 42.9212 119.519 44.249C119.519 45.5768 119.245 46.7386 118.697 47.7345C118.166 48.7303 117.403 49.4938 116.407 50.0249C115.411 50.556 114.249 50.8216 112.921 50.8216ZM112.921 47.9585C113.851 47.9585 114.556 47.6515 115.038 47.0374C115.536 46.4233 115.784 45.4938 115.784 44.249C115.784 43.0208 115.536 42.0996 115.038 41.4855C114.556 40.8548 113.851 40.5394 112.921 40.5394C111.975 40.5394 111.253 40.8548 110.755 41.4855C110.258 42.0996 110.009 43.0208 110.009 44.249C110.009 46.722 110.98 47.9585 112.921 47.9585Z" fill="#3D99FF"/>
<path d="M129.64 37.6764C130.718 37.6764 131.681 37.9585 132.528 38.5229C133.374 39.0706 134.03 39.8507 134.494 40.8631C134.976 41.8755 135.216 43.0291 135.216 44.3237C135.216 45.6183 134.984 46.7635 134.519 47.7594C134.055 48.7386 133.399 49.4938 132.552 50.0249C131.706 50.556 130.735 50.8216 129.64 50.8216C128.76 50.8216 127.972 50.639 127.274 50.2739C126.577 49.9087 126.046 49.4025 125.681 48.7552V56H121.922V41.61C121.922 40.2656 121.855 39.0623 121.723 38H125.258L125.507 40.0913C125.839 39.3444 126.37 38.7552 127.1 38.3237C127.847 37.8921 128.694 37.6764 129.64 37.6764ZM128.569 47.9585C129.499 47.9585 130.212 47.6515 130.71 47.0374C131.208 46.4067 131.457 45.5021 131.457 44.3237C131.457 43.1453 131.2 42.2241 130.685 41.5602C130.187 40.8963 129.482 40.5643 128.569 40.5643C127.64 40.5643 126.918 40.888 126.403 41.5353C125.905 42.166 125.656 43.0789 125.656 44.2739C125.656 45.4689 125.905 46.3818 126.403 47.0125C126.918 47.6432 127.64 47.9585 128.569 47.9585Z" fill="#3D99FF"/>
<path d="M148.956 44.6224H140.64C140.707 45.8009 141.014 46.6639 141.561 47.2116C142.109 47.7428 142.922 48.0083 144.001 48.0083C144.649 48.0083 145.296 47.9004 145.943 47.6847C146.59 47.4689 147.188 47.1536 147.736 46.7386L148.732 49.278C148.134 49.7594 147.387 50.1411 146.491 50.4233C145.611 50.6888 144.723 50.8216 143.827 50.8216C141.703 50.8216 140.034 50.2407 138.823 49.0789C137.611 47.9004 137.005 46.2988 137.005 44.2739C137.005 42.9959 137.263 41.8589 137.777 40.8631C138.308 39.8507 139.047 39.0706 139.993 38.5229C140.939 37.9585 142.01 37.6764 143.205 37.6764C144.981 37.6764 146.383 38.2573 147.412 39.4191C148.441 40.5643 148.956 42.1162 148.956 44.0747V44.6224ZM143.304 40.3154C142.59 40.3154 142.01 40.5228 141.561 40.9378C141.13 41.3527 140.848 41.9585 140.715 42.7552H145.719C145.52 41.1287 144.715 40.3154 143.304 40.3154Z" fill="#3D99FF"/>
<path d="M160.03 50.6224L155.075 44.971V50.6224H151.316V32.2988H155.075V43.4274L159.806 38.0249H164.312L158.959 44.0747L164.635 50.6224H160.03Z" fill="#3D99FF"/>
<path d="M169.712 46.6141V50.6224H165.653V46.6141H169.712Z" fill="#3D99FF"/>
<path d="M178.176 50.8216C176.118 50.8216 174.499 50.2407 173.321 49.0789C172.159 47.917 171.578 46.332 171.578 44.3237C171.578 43.0125 171.86 41.8589 172.425 40.8631C172.989 39.8507 173.777 39.0706 174.79 38.5229C175.819 37.9585 177.006 37.6764 178.35 37.6764C179.263 37.6764 180.151 37.8175 181.014 38.0996C181.877 38.3818 182.566 38.7635 183.08 39.2448L182.084 41.8589C181.586 41.4606 181.039 41.1536 180.441 40.9378C179.844 40.7054 179.263 40.5892 178.698 40.5892C177.669 40.5892 176.864 40.9046 176.284 41.5353C175.719 42.1494 175.437 43.054 175.437 44.249C175.437 45.4606 175.719 46.3818 176.284 47.0125C176.848 47.6266 177.653 47.9336 178.698 47.9336C179.263 47.9336 179.844 47.8257 180.441 47.61C181.039 47.3776 181.586 47.0623 182.084 46.6639L183.08 49.278C182.532 49.7594 181.819 50.1411 180.939 50.4233C180.059 50.6888 179.138 50.8216 178.176 50.8216Z" fill="#3D99FF"/>
<path d="M195.672 47.8092V50.6224H184.544V47.9834L190.917 40.8133H184.643V38H195.424V40.5394L188.95 47.8092H195.672Z" fill="#3D99FF"/>
</svg>
