<svg width="18" height="16" viewBox="0 0 18 16" fill="none" xmlns="http://www.w3.org/2000/svg">
<path d="M6.42173 11.7502H11.578C11.6639 11.7502 11.7342 11.6799 11.7342 11.594V9.95337C11.7342 9.86743 11.6639 9.79712 11.578 9.79712H10.7967C10.7108 9.79712 10.6405 9.86743 10.6405 9.95337V10.6565H7.35923V9.95337C7.35923 9.86743 7.28891 9.79712 7.20298 9.79712H6.42173C6.33579 9.79712 6.26548 9.86743 6.26548 9.95337V11.594C6.26548 11.6799 6.33579 11.7502 6.42173 11.7502ZM13.0623 9.3479C13.0623 9.5551 13.1447 9.75382 13.2912 9.90033C13.4377 10.0468 13.6364 10.1292 13.8436 10.1292C14.0508 10.1292 14.2495 10.0468 14.396 9.90033C14.5425 9.75382 14.6248 9.5551 14.6248 9.3479C14.6248 9.1407 14.5425 8.94199 14.396 8.79547C14.2495 8.64896 14.0508 8.56665 13.8436 8.56665C13.6364 8.56665 13.4377 8.64896 13.2912 8.79547C13.1447 8.94199 13.0623 9.1407 13.0623 9.3479ZM17.7303 6.07446L17.2674 5.26587C17.2466 5.23022 17.2125 5.20426 17.1727 5.19365C17.1328 5.18304 17.0903 5.18864 17.0545 5.20923L16.0643 5.78735L14.535 1.5647C14.4543 1.31273 14.2955 1.09295 14.0817 0.937076C13.8679 0.781204 13.6101 0.697311 13.3456 0.69751H4.88266C4.20493 0.69751 3.60337 1.13501 3.39438 1.78149L1.93735 5.78931L0.945163 5.21118C0.909392 5.19059 0.866925 5.18499 0.827038 5.1956C0.78715 5.20621 0.753082 5.23218 0.732273 5.26782L0.269382 6.07446C0.226413 6.14868 0.251804 6.24243 0.326023 6.2854L1.50571 6.9729L1.22251 7.75415C1.19907 7.81665 1.18735 7.88306 1.18735 7.94946V14.7502C1.18735 15.0569 1.41782 15.3049 1.70102 15.3049H3.02133C3.26157 15.3049 3.47055 15.1233 3.52133 14.8694L3.67173 14.1331H14.328L14.4784 14.8694C14.5311 15.1233 14.7381 15.3049 14.9784 15.3049H16.2987C16.5819 15.3049 16.8123 15.0569 16.8123 14.7502V7.94946C16.8123 7.88306 16.8006 7.81665 16.7772 7.75415L16.494 6.9729L17.6717 6.2854C17.7072 6.26493 17.7332 6.23136 17.7441 6.19191C17.7551 6.15246 17.7501 6.11029 17.7303 6.07446ZM15.4061 8.0979V12.7268H2.5936V8.0979L2.89829 7.25806H15.1014L15.4061 8.0979ZM4.71665 2.26001L4.72641 2.23462L4.73423 2.20923C4.75571 2.14478 4.8143 2.10181 4.88266 2.10181H13.2342L14.7069 6.16431H3.29673L4.71665 2.26001ZM3.37485 9.3479C3.37485 9.5551 3.45716 9.75382 3.60367 9.90033C3.75019 10.0468 3.9489 10.1292 4.1561 10.1292C4.3633 10.1292 4.56201 10.0468 4.70853 9.90033C4.85504 9.75382 4.93735 9.5551 4.93735 9.3479C4.93735 9.1407 4.85504 8.94199 4.70853 8.79547C4.56201 8.64896 4.3633 8.56665 4.1561 8.56665C3.9489 8.56665 3.75019 8.64896 3.60367 8.79547C3.45716 8.94199 3.37485 9.1407 3.37485 9.3479Z" fill="#F5F5F5"/>
</svg>
