<svg width="16" height="16" viewBox="0 0 16 16" fill="none" xmlns="http://www.w3.org/2000/svg">
<path d="M14.5038 3.78301V1.53125C14.5038 1.22012 14.2524 0.96875 13.9413 0.96875H2.05848C1.74735 0.96875 1.49598 1.22012 1.49598 1.53125V3.78301C1.20243 3.80059 0.968639 4.04492 0.968639 4.34375V6.65879C0.967513 7.08426 1.05366 7.50544 1.22176 7.89629C1.29735 8.07559 1.39051 8.24434 1.49598 8.4043V14.4688C1.49598 14.7781 1.74735 15.0312 2.05848 15.0312H13.9413C14.2524 15.0312 14.5038 14.7799 14.5038 14.4688V8.4043C14.6109 8.24393 14.7027 8.07385 14.778 7.89629C14.945 7.5043 15.0311 7.0877 15.0311 6.65879V4.34375C15.0311 4.04492 14.7973 3.80059 14.5038 3.78301ZM2.76161 2.23438H13.2382V3.78125H2.76161V2.23438ZM9.12489 13.7674H6.87489V11.9375H9.12489V13.7674ZM13.2382 13.7674H10.2499V11.375C10.2499 11.0639 9.99852 10.8125 9.68739 10.8125H6.31239C6.00126 10.8125 5.74989 11.0639 5.74989 11.375V13.7674H2.76161V9.50996C2.81258 9.53457 2.86532 9.55918 2.91981 9.58027C3.3118 9.74551 3.7284 9.82812 4.15731 9.82812C4.58622 9.82812 5.00106 9.74551 5.39481 9.58027C5.63739 9.47832 5.8659 9.34824 6.07508 9.1918C6.0786 9.19004 6.08212 9.19004 6.08563 9.1918C6.29546 9.34891 6.52396 9.4794 6.7659 9.58027C7.1579 9.74551 7.5745 9.82812 8.0034 9.82812C8.43231 9.82812 8.84715 9.74551 9.2409 9.58027C9.48348 9.47832 9.712 9.34824 9.92118 9.1918C9.92469 9.19004 9.92821 9.19004 9.93172 9.1918C10.1416 9.34891 10.3701 9.4794 10.612 9.58027C11.004 9.74551 11.4206 9.82812 11.8495 9.82812C12.2784 9.82812 12.6932 9.74551 13.087 9.58027C13.1397 9.55742 13.1925 9.53457 13.2452 9.50996V13.7674H13.2382ZM13.7655 6.65879C13.7655 7.70996 12.9042 8.5625 11.8442 8.5625C11.127 8.5625 10.5013 8.17402 10.1708 7.59746C10.1198 7.50957 10.0284 7.45508 9.92645 7.45508H9.9159C9.81571 7.45508 9.72254 7.50957 9.67157 7.59746C9.50292 7.89157 9.25942 8.13579 8.9658 8.30529C8.67218 8.47479 8.33892 8.56354 7.99989 8.5625C7.28446 8.5625 6.66044 8.17578 6.32997 7.60098C6.27723 7.51133 6.18231 7.45508 6.0786 7.45508C5.97489 7.45508 5.87821 7.51133 5.82723 7.60098C5.6576 7.89396 5.41379 8.13709 5.12032 8.30589C4.82685 8.47468 4.4941 8.56319 4.15555 8.5625C3.09559 8.5625 2.23426 7.70996 2.23426 6.65879V5.05566C2.23426 5.05039 2.23778 5.04688 2.24305 5.04688H13.7567C13.762 5.04688 13.7655 5.05039 13.7655 5.05566V6.65879Z" fill="#E8E8E8"/>
</svg>
