<svg width="36" height="36" viewBox="0 0 36 36" fill="none" xmlns="http://www.w3.org/2000/svg">
<g clip-path="url(#clip0)">
<path d="M4.50093 5.62512V1.12501C4.50093 0.503112 5.00404 0 5.62609 0C6.24783 0 6.75094 0.503112 6.75094 1.12501V5.62512C6.75094 6.24687 6.24783 6.74999 5.62609 6.74999C5.00404 6.75006 4.50093 6.24687 4.50093 5.62512ZM23.6261 6.75006C24.2477 6.75006 24.7511 6.24695 24.7511 5.6252V1.12501C24.7511 0.503112 24.2477 0 23.6261 0C23.0042 0 22.5007 0.503112 22.5007 1.12501V5.62512C22.5007 6.24687 23.0042 6.75006 23.6261 6.75006ZM36.0008 26.9998C36.0008 31.9705 31.9712 36.0001 27.0008 36.0001C22.0309 36.0001 18.0009 31.9705 18.0009 26.9998C18.0009 22.0298 22.0308 18 27.0008 18C31.9712 18 36.0008 22.0297 36.0008 26.9998ZM33.7511 26.9998C33.7511 23.2781 30.7232 20.2499 27.0009 20.2499C23.2789 20.2499 20.251 23.2781 20.251 26.9998C20.251 30.7222 23.2789 33.75 27.0009 33.75C30.7232 33.75 33.7511 30.7222 33.7511 26.9998ZM9.00103 13.5H4.50093V18H9.00103V13.5ZM4.50093 24.7501H9.00103V20.2499H4.50093V24.7501ZM11.2509 18H15.7511V13.5H11.2509V18ZM11.2509 24.7501H15.7511V20.2499H11.2509V24.7501ZM2.25106 26.7761V11.25H27.0009V15.7501H29.251V6.97428C29.251 5.60754 28.1609 4.49997 26.8142 4.49997H25.8759V5.6252C25.8759 6.86432 24.8672 7.87514 23.6262 7.87514C22.3849 7.87514 21.3762 6.86432 21.3762 5.6252V4.49997H7.87588V5.6252C7.87588 6.86432 6.86736 7.87514 5.62616 7.87514C4.38467 7.87514 3.37607 6.86432 3.37607 5.6252V4.49997H2.43885C1.09208 4.49997 0.000976562 5.60754 0.000976562 6.97428V26.7762C0.000976562 28.1384 1.09208 29.2503 2.43885 29.2503H15.7511V26.9999H2.43885C2.33691 26.9998 2.25106 26.8945 2.25106 26.7761ZM22.5007 18V13.5H18.001V18H22.5007ZM30.3759 26.9998H27.0008V23.6247C27.0008 23.0032 26.4977 22.5 25.8758 22.5C25.2539 22.5 24.7511 23.0032 24.7511 23.6247V28.1252C24.7511 28.7468 25.2539 29.2502 25.8758 29.2502H30.3759C30.9978 29.2502 31.5009 28.7468 31.5009 28.1252C31.5009 27.5033 30.9978 26.9998 30.3759 26.9998Z" fill="#19324C"/>
</g>
<defs>
<clipPath id="clip0">
<rect width="36" height="36" fill="white"/>
</clipPath>
</defs>
</svg>
