<svg width="36" height="36" viewBox="0 0 36 36" fill="none" xmlns="http://www.w3.org/2000/svg">
<g clip-path="url(#clip0)">
<path d="M4.50095 5.62512V1.12501C4.50095 0.503112 5.00406 0 5.62611 0C6.24786 0 6.75097 0.503112 6.75097 1.12501V5.62512C6.75097 6.24687 6.24786 6.74999 5.62611 6.74999C5.00406 6.75006 4.50095 6.24687 4.50095 5.62512ZM23.6261 6.75006C24.2477 6.75006 24.7512 6.24695 24.7512 5.6252V1.12501C24.7512 0.503112 24.2477 0 23.6261 0C23.0043 0 22.5008 0.503112 22.5008 1.12501V5.62512C22.5008 6.24687 23.0043 6.75006 23.6261 6.75006ZM36.0009 26.9998C36.0009 31.9705 31.9712 36.0001 27.0009 36.0001C22.0309 36.0001 18.001 31.9705 18.001 26.9998C18.001 22.0298 22.0308 18 27.0009 18C31.9712 18 36.0009 22.0297 36.0009 26.9998ZM33.7511 26.9998C33.7511 23.2781 30.7233 20.2499 27.0009 20.2499C23.2789 20.2499 20.2511 23.2781 20.2511 26.9998C20.2511 30.7222 23.2789 33.75 27.0009 33.75C30.7233 33.75 33.7511 30.7222 33.7511 26.9998ZM9.00106 13.5H4.50095V18H9.00106V13.5ZM4.50095 24.7501H9.00106V20.2499H4.50095V24.7501ZM11.2509 18H15.7511V13.5H11.2509V18ZM11.2509 24.7501H15.7511V20.2499H11.2509V24.7501ZM2.25109 26.7761V11.25H27.0009V15.7501H29.251V6.97428C29.251 5.60754 28.161 4.49997 26.8143 4.49997H25.8759V5.6252C25.8759 6.86432 24.8672 7.87514 23.6262 7.87514C22.3849 7.87514 21.3762 6.86432 21.3762 5.6252V4.49997H7.8759V5.6252C7.8759 6.86432 6.86738 7.87514 5.62618 7.87514C4.38469 7.87514 3.37609 6.86432 3.37609 5.6252V4.49997H2.43887C1.0921 4.49997 0.000999451 5.60754 0.000999451 6.97428V26.7762C0.000999451 28.1384 1.0921 29.2503 2.43887 29.2503H15.7511V26.9999H2.43887C2.33693 26.9998 2.25109 26.8945 2.25109 26.7761ZM22.5008 18V13.5H18.001V18H22.5008ZM30.376 26.9998H27.0009V23.6247C27.0009 23.0032 26.4978 22.5 25.8759 22.5C25.254 22.5 24.7512 23.0032 24.7512 23.6247V28.1252C24.7512 28.7468 25.254 29.2502 25.8759 29.2502H30.376C30.9979 29.2502 31.501 28.7468 31.501 28.1252C31.501 27.5033 30.9979 26.9998 30.376 26.9998Z" fill="#915DBF"/>
</g>
<defs>
<clipPath id="clip0">
<rect width="36" height="36" fill="white"/>
</clipPath>
</defs>
</svg>
