<svg width="36" height="36" viewBox="0 0 36 36" fill="none" xmlns="http://www.w3.org/2000/svg">
<g clip-path="url(#clip0)">
<path d="M34.9453 36H1.05469C0.472137 36 0 35.5278 0 34.9453V33.5937C0 31.8491 1.41943 30.4296 3.16406 30.4296H32.8359C34.5806 30.4296 36 31.8491 36 33.5937V34.9453C36 35.5278 35.5279 36 34.9453 36Z" fill="#FEA800"/>
<path d="M0.129639 6.01556L3.12424 0.547943C3.30936 0.210114 3.66394 0 4.04929 0H32.1633C32.5602 0 32.9233 0.222748 33.1035 0.576508L35.8852 6.04413L0.129639 6.01556Z" fill="#FEA800"/>
<path d="M32.8359 28.3203C33.2724 28.3203 33.6962 28.3746 34.1021 28.4749V25.1584H14.5063V28.3203H32.8359Z" fill="#FEA800"/>
<path d="M11.222 14.7859C10.0127 14.7859 8.84427 14.4547 7.8327 13.8461C6.82141 14.4547 5.65302 14.7859 4.4437 14.7859C3.62137 14.7859 2.83392 14.6341 2.108 14.358V28.4266C2.4494 28.3571 2.80234 28.3203 3.16406 28.3203H12.397V14.6797C12.0125 14.7494 11.6194 14.7859 11.222 14.7859ZM10.2876 21.7444C10.2876 22.327 9.81546 22.7991 9.23291 22.7991C8.65063 22.7991 8.17822 22.327 8.17822 21.7444V20.6881C8.17822 20.1055 8.65063 19.6334 9.23291 19.6334C9.81546 19.6334 10.2876 20.1055 10.2876 20.6881V21.7444Z" fill="#FEA800"/>
<path d="M31.5563 14.7859C30.347 14.7859 29.1786 14.4547 28.1673 13.8461C27.7202 14.115 27.2422 14.3297 26.7437 14.4857L23.2083 17.9753C23.0029 18.178 22.7351 18.2793 22.4673 18.2793C22.1951 18.2793 21.9232 18.1747 21.7167 17.9654C21.3077 17.5509 21.3121 16.8832 21.7266 16.474L23.5539 14.6703C22.7865 14.5253 22.054 14.246 21.389 13.8461C20.3777 14.4547 19.2093 14.7857 18 14.7857C16.791 14.7857 15.6226 14.4547 14.611 13.8461C14.5767 13.8667 14.5415 13.8862 14.5066 13.9065V23.049H21.642L28.0734 16.5179C28.4878 16.1087 29.1555 16.1131 29.5648 16.5276C29.974 16.9423 29.9696 17.61 29.5551 18.0192L24.6022 23.049H34.1024V14.2745C33.3191 14.6039 32.4586 14.7859 31.5563 14.7859Z" fill="#FEA800"/>
<path d="M0 8.12579V8.27686C0 10.7029 1.99347 12.6766 4.4437 12.6766C5.80078 12.6766 7.01697 12.0704 7.8327 11.1179C8.64871 12.0704 9.8649 12.6766 11.222 12.6766C12.5791 12.6766 13.7953 12.0704 14.611 11.1179C15.4267 12.0704 16.6429 12.6766 18 12.6766C19.3571 12.6766 20.5733 12.0704 21.389 11.1179C22.2047 12.0704 23.4209 12.6766 24.778 12.6766C26.1351 12.6766 27.3513 12.0704 28.1673 11.1179C28.983 12.0704 30.1992 12.6766 31.5563 12.6766C34.0065 12.6766 36 10.7029 36 8.27686V8.12579H0Z" fill="#FEA800"/>
</g>
<defs>
<clipPath id="clip0">
<rect width="36" height="36" fill="white"/>
</clipPath>
</defs>
</svg>
