<svg width="36" height="36" viewBox="0 0 36 36" fill="none" xmlns="http://www.w3.org/2000/svg">
<g clip-path="url(#clip0)">
<path d="M34.9453 36H1.05469C0.472137 36 0 35.5279 0 34.9453V33.5937C0 31.8491 1.41943 30.4297 3.16406 30.4297H32.8359C34.5806 30.4297 36 31.8491 36 33.5937V34.9453C36 35.5279 35.5279 36 34.9453 36Z" fill="#19324C"/>
<path d="M0.129639 6.01556L3.12424 0.547943C3.30936 0.210114 3.66394 0 4.04929 0H32.1633C32.5602 0 32.9233 0.222748 33.1035 0.576508L35.8852 6.04413L0.129639 6.01556Z" fill="#19324C"/>
<path d="M32.8359 28.3203C33.2724 28.3203 33.6962 28.3747 34.1021 28.4749V25.1584H14.5063V28.3203H32.8359Z" fill="#19324C"/>
<path d="M11.222 14.7858C10.0127 14.7858 8.84427 14.4546 7.8327 13.8459C6.82141 14.4546 5.65302 14.7858 4.4437 14.7858C3.62137 14.7858 2.83392 14.6339 2.108 14.3579V28.4265C2.4494 28.357 2.80234 28.3202 3.16406 28.3202H12.397V14.6795C12.0125 14.7493 11.6194 14.7858 11.222 14.7858ZM10.2876 21.7443C10.2876 22.3268 9.81546 22.799 9.23291 22.799C8.65063 22.799 8.17822 22.3268 8.17822 21.7443V20.688C8.17822 20.1054 8.65063 19.6333 9.23291 19.6333C9.81546 19.6333 10.2876 20.1054 10.2876 20.688V21.7443Z" fill="#19324C"/>
<path d="M31.5563 14.7858C30.347 14.7858 29.1786 14.4546 28.1673 13.8459C27.7202 14.1148 27.2422 14.3296 26.7437 14.4856L23.2083 17.9752C23.0029 18.1779 22.7351 18.2792 22.4673 18.2792C22.1951 18.2792 21.9232 18.1746 21.7167 17.9653C21.3077 17.5508 21.3121 16.8831 21.7266 16.4739L23.5539 14.6702C22.7865 14.5252 22.054 14.2458 21.389 13.8459C20.3777 14.4546 19.2093 14.7856 18 14.7856C16.791 14.7856 15.6226 14.4546 14.611 13.8459C14.5767 13.8665 14.5415 13.886 14.5066 13.9064V23.0489H21.642L28.0734 16.5178C28.4878 16.1086 29.1555 16.113 29.5648 16.5274C29.974 16.9422 29.9696 17.6099 29.5551 18.0191L24.6022 23.0489H34.1024V14.2744C33.3191 14.6037 32.4586 14.7858 31.5563 14.7858Z" fill="#19324C"/>
<path d="M0 8.12573V8.27679C0 10.7029 1.99347 12.6765 4.4437 12.6765C5.80078 12.6765 7.01697 12.0704 7.8327 11.1179C8.64871 12.0704 9.8649 12.6765 11.222 12.6765C12.5791 12.6765 13.7953 12.0704 14.611 11.1179C15.4267 12.0704 16.6429 12.6765 18 12.6765C19.3571 12.6765 20.5733 12.0704 21.389 11.1179C22.2047 12.0704 23.4209 12.6765 24.778 12.6765C26.1351 12.6765 27.3513 12.0704 28.1673 11.1179C28.983 12.0704 30.1992 12.6765 31.5563 12.6765C34.0065 12.6765 36 10.7029 36 8.27679V8.12573H0Z" fill="#19324C"/>
</g>
<defs>
<clipPath id="clip0">
<rect width="36" height="36" fill="white"/>
</clipPath>
</defs>
</svg>
